<?xml version="1.0" encoding="utf-8"?>
<!-- Generator: Adobe Illustrator 19.0.0, SVG Export Plug-In . SVG Version: 6.00 Build 0)  -->
<svg version="1.1" id="Capa_1" xmlns="http://www.w3.org/2000/svg" xmlns:xlink="http://www.w3.org/1999/xlink" x="0px" y="0px"
	 viewBox="0 0 125.9 30" style="enable-background:new 0 0 125.9 30;" xml:space="preserve">
<style type="text/css">
	.st0{fill:#0305FE;}
	.st1{fill:#05065E;}
	.st2{fill:none;stroke:#0305FE;stroke-width:4.7863;stroke-miterlimit:10;}
	.st3{fill:none;stroke:#FFFFFF;stroke-width:4.7863;stroke-miterlimit:10;}
	.st4{fill:none;stroke:#202020;stroke-width:4.7863;stroke-miterlimit:10;}
	.st5{fill:none;stroke:#0305FE;stroke-width:1.407;stroke-miterlimit:10;}
	.st6{fill:none;stroke:#202020;stroke-width:1.407;stroke-miterlimit:10;}
	.st7{fill:#202020;}
</style>
<polygon class="st0" points="765.9,-467.6 765.9,-363.9 765.9,-343.1 869.6,-343.1 869.6,-363.9 869.6,-467.6 "/>
<rect x="396.6" y="-668.9" class="st0" width="86.2" height="86.2"/>
<g>
	<g>
		<g>
			<path class="st1" d="M56.2-278.6l-1,1.9c-4.2,7.8-6.3,13.9-6.3,18.2c0,1.3,0.5,2.5,1.4,3.7c-0.8,0.3-2.6,0.9-5.4,1.9
				c-1.3,0.5-2.5,0.7-3.7,0.7c-2.3,0-3.5-1.1-3.5-3.3c0-4.6,2.9-11.7,8.6-21.2l1.5-2.5h-2.5c-5.5,0-9.7,0.8-12.7,2.5
				c1.6-5.6,5.8-8.4,12.6-8.4l6.2,0.2l1.3-2c5.2-7.8,13.2-18.4,23.9-31.7c3.6-4.5,6.3-7.3,8.1-8.4c1.8-1.1,5.3-2.1,10.4-3
				c-1,6-1.4,11.6-1.4,16.7c0,13.7,1.6,27.5,4.7,41.6c1.7,7.7,4.4,12.7,7.9,14.9c-3.1,3.1-5.8,4.6-8,4.6c-5.3,0-9.3-9-12.2-27
				c-5.5,0.6-11,0.9-16.6,0.9L56.2-278.6z M59.8-284.5l10.1,0.2c6.9,0,12.2-0.2,15.8-0.7c-1.5-11.7-2.3-21.4-2.3-29l0-3.7
				c-1.1,1.4-3.6,4.4-7.4,9.1c-6.9,8.5-12,15.9-15.2,22.2L59.8-284.5z"/>
			<path class="st0" d="M142.4-285.4l-6.9,34.5c-0.6,3.2-0.9,5.2-0.9,6.1c0,0.9,0.2,1.9,0.6,3c-3.4,1.7-6.4,2.5-9.2,2.5
				c-1.7,0-2.6-0.7-2.6-2.1c0-0.7,0.3-2.8,1-6.2l7.5-37.9h-0.7c-3,0-6.2,0.7-9.7,2.1c1.6-3.5,3.1-5.8,4.3-6.8c1.2-1,3.2-1.5,6-1.5
				h1.3l6-29.8H138c-7.3,0-13,2-17.3,5.9c1.3-5.3,3.5-8.8,6.7-10.5c2.3-1.2,9.3-1.8,21.1-1.8h13.1c9.8,0,17.9-0.9,24.4-2.6
				c-2.1,3.6-4.2,6-6.5,7.3c-2.2,1.2-5.7,1.8-10.4,1.8l-4.4,0h-15.3l-5.9,29.8h10.8c6.7,0,12.2-0.8,16.6-2.5
				c-1.6,3.8-3.4,6.2-5.5,7.2c-2.1,1-6.2,1.5-12.2,1.5H142.4z"/>
		</g>
	</g>
	<g>
		<g>
			<path class="st1" d="M225.9-307.4l-0.4,0.7c-1.5,2.9-2.3,5.1-2.3,6.7c0,0.5,0.2,0.9,0.5,1.4c-0.3,0.1-1,0.3-2,0.7
				c-0.5,0.2-0.9,0.3-1.4,0.3c-0.9,0-1.3-0.4-1.3-1.2c0-1.7,1.1-4.3,3.2-7.8l0.6-0.9h-0.9c-2,0-3.6,0.3-4.7,0.9
				c0.6-2.1,2.1-3.1,4.7-3.1l2.3,0.1l0.5-0.7c1.9-2.9,4.9-6.8,8.9-11.7c1.3-1.7,2.3-2.7,3-3.1c0.7-0.4,2-0.8,3.9-1.1
				c-0.4,2.2-0.5,4.3-0.5,6.2c0,5.1,0.6,10.2,1.8,15.4c0.6,2.9,1.6,4.7,2.9,5.5c-1.2,1.1-2.1,1.7-3,1.7c-1.9,0-3.4-3.3-4.5-10
				c-2,0.2-4.1,0.3-6.1,0.3L225.9-307.4z M227.3-309.6l3.7,0.1c2.5,0,4.5-0.1,5.9-0.3c-0.6-4.3-0.8-7.9-0.8-10.7l0-1.4
				c-0.4,0.5-1.3,1.6-2.7,3.4c-2.6,3.1-4.4,5.9-5.6,8.2L227.3-309.6z"/>
			<path class="st1" d="M249.7-304.8c0,2,0.6,3.6,1.7,4.7c1.1,1.1,2.6,1.7,4.6,1.7c1.7,0,3.2-0.5,4.5-1.6c1.3-1,1.9-2.2,1.9-3.6
				c0-1.5-1.4-3.5-4.2-6.1l-2-1.9c-2.6-2.4-3.9-4.6-3.9-6.7c0-2.4,0.9-4.3,2.8-5.8c1.8-1.5,4.2-2.3,7.1-2.3c1.5,0,2.7,0.2,3.7,0.7
				c0.9,0.5,1.4,1.1,1.4,1.8c0,0.7-0.3,1.6-1,2.5c-1.1-2.1-2.8-3.1-5.2-3.1c-1.5,0-2.8,0.5-3.8,1.4c-1,0.9-1.5,2.1-1.5,3.4
				c0,0.9,0.2,1.6,0.5,2.1c0.3,0.5,1.4,1.5,3.1,3.1l1.7,1.5c3,2.8,4.5,5.3,4.5,7.6c0,2.6-1,4.8-3.1,6.5c-2.1,1.7-4.7,2.6-7.8,2.6
				c-2.1,0-3.8-0.5-5.2-1.5c-1.4-1-2.1-2.2-2.1-3.7C247.2-302.4,248-303.5,249.7-304.8z"/>
			<path class="st1" d="M284.7-322.8l-4.2,20.8c-0.2,1.2-0.4,1.9-0.4,2.3c0,0.3,0.1,0.7,0.2,1.1c-1.3,0.6-2.4,0.9-3.4,0.9
				c-0.6,0-1-0.3-1-0.8c0-0.3,0.1-1,0.4-2.3l4.4-22.1h-2.6c-2.9,0-5.4,0.3-7.5,0.8c0.4-1.6,1-2.7,1.6-3.1c0.7-0.4,2.2-0.6,4.5-0.6
				h12.5c3.4,0,5.6-1.2,6.7-3.6c0.4,0.7,0.6,1.3,0.6,1.8c0,1.6-1,2.9-3,3.9c-1.2,0.6-3.5,0.9-6.8,0.9H284.7z"/>
			<path class="st1" d="M314.2-306.6c-3.7,5.3-7.3,8-10.9,8c-1.9,0-3.5-0.7-4.8-2.1c-1.3-1.4-1.9-3.2-1.9-5.4
				c0-4.3,1.7-10.1,5.1-17.3c-1,0.2-2,0.3-2.8,0.3c-1.1,0-2-0.3-2.5-0.9c-0.5-0.6-0.9-1.6-1.1-3c0.9,0.7,2.1,1.1,3.6,1.1
				c0.8,0,3.6-0.2,8.4-0.6c-4.3,8.5-6.5,15-6.5,19.4c0,1.6,0.4,2.9,1.2,3.9c0.8,1,1.8,1.5,3.1,1.5c1.7,0,3.5-0.9,5.2-2.6
				s3.3-4.2,4.8-7.5c1.1-6,2-9.7,2.9-11.1c0.8-1.4,2.5-2.1,5.1-2.1c-1.1,1.4-2.2,4.4-3.3,9c-1.1,4.6-1.6,8.5-1.6,11.7
				c0,2.5,0.8,3.8,2.3,3.8c1,0,2.1-0.5,3.4-1.6c0,0.3,0.1,0.5,0.1,0.7c0,0.8-0.5,1.6-1.5,2.3c-1,0.7-2.1,1.1-3.3,1.1
				c-3.3,0-5-2.1-5-6.3C314-304.6,314.1-305.4,314.2-306.6z"/>
			<path class="st1" d="M327-315.9c-0.5-0.6-0.8-1.3-0.8-2.1c0-2,1.7-3.9,5.2-5.7c3.5-1.8,7.2-2.7,11.1-2.7c6.1,0,9.2,1.9,9.2,5.8
				c0,1.9-0.7,3.5-2,4.8c-1.3,1.3-3.6,2.7-6.9,4.1c2.9,6.7,5.5,10.1,7.6,10.1c1.1,0,2.3-0.8,3.6-2.4c0.1,0.3,0.1,0.5,0.1,0.6
				c0,1-0.6,2.1-1.8,3.2c-1.2,1.1-2.4,1.7-3.5,1.7c-2.9,0-6-3.9-9.2-11.8c-0.7,0.2-1.2,0.3-1.8,0.3c-0.3,0-0.5,0-0.7-0.1
				c0.5-2.3,1.6-3.5,3.5-3.5c0.4,0,0.8,0.1,1.4,0.2c4-1.4,6.1-3.6,6.1-6.7c0-1.2-0.6-2.1-1.7-2.9c-1.2-0.7-2.6-1.1-4.4-1.1
				c-3,0-5.9,0.8-8.7,2.3C330.4-320.2,328.3-318.3,327-315.9z M333.6-296.6c-1.3,0.6-2.4,0.9-3.4,0.9c-0.6,0-1-0.3-1-0.8
				c0-0.3,0.1-1,0.4-2.3l3.5-17.9c0.2-1,0.3-1.8,0.3-2.2c0-0.4-0.1-0.8-0.4-1.2c1.6-0.6,2.8-0.9,3.4-0.9c0.8,0,1.2,0.4,1.2,1.3
				c0,0.2-0.2,1.3-0.6,3.2l-3.3,16.4c-0.2,1.1-0.4,2-0.4,2.4C333.5-297.3,333.5-296.9,333.6-296.6z"/>
			<path class="st1" d="M366.5-310l-2.5,12.8c-0.2,1.2-0.4,1.9-0.4,2.3c0,0.3,0.1,0.7,0.2,1.1c-1.2,0.6-2.4,0.9-3.4,0.9
				c-0.6,0-1-0.3-1-0.8c0-0.3,0.1-1,0.4-2.3l2.8-14h-0.3c-1.1,0-2.3,0.3-3.6,0.8c0.6-1.3,1.1-2.1,1.6-2.5c0.5-0.4,1.2-0.6,2.2-0.6
				h0.5l2.2-11h-0.4c-2.7,0-4.8,0.7-6.4,2.2c0.5-1.9,1.3-3.2,2.5-3.9c0.8-0.5,3.4-0.7,7.8-0.7h4.9c3.6,0,6.6-0.3,9-1
				c-0.8,1.3-1.6,2.2-2.4,2.7c-0.8,0.4-2.1,0.7-3.8,0.7l-1.6,0h-5.6l-2.2,11h4c2.5,0,4.5-0.3,6.1-0.9c-0.6,1.4-1.3,2.3-2,2.7
				c-0.8,0.4-2.3,0.6-4.5,0.6H366.5z"/>
			<path class="st1" d="M393.6-323.7l-4.6,22.9c2.4-0.3,4-0.5,5-0.5c1.6,0,2.4,1.1,2.4,3.3c-0.9-0.3-1.8-0.5-2.8-0.5
				c-1,0-2.1,0.1-3.5,0.3l-4.2,0.6c-1.5,0.2-2.6,0.3-3.2,0.3c-1,0-1.8-0.2-2.2-0.7c-0.4-0.5-0.7-1.4-0.8-2.7
				c0.9,0.5,1.8,0.7,2.7,0.7c0.5,0,1.4-0.1,2.6-0.3l4.6-23c-1.3,0.2-2.5,0.3-3.5,0.3c-1.7,0-2.5-1-2.5-3c0.5,0.3,1.1,0.5,1.8,0.5
				c0.9,0,2.2-0.2,3.9-0.5l2.9-0.6c2-0.4,3.6-0.6,4.7-0.6c1.7,0,2.6,1.1,2.9,3.3c-0.7-0.3-1.4-0.5-2.2-0.5c-0.9,0-2,0.1-3.2,0.3
				C394.2-323.8,394-323.7,393.6-323.7z"/>
			<path class="st1" d="M402.1-304.8c0,2,0.6,3.6,1.7,4.7c1.1,1.1,2.6,1.7,4.6,1.7c1.7,0,3.2-0.5,4.5-1.6c1.3-1,1.9-2.2,1.9-3.6
				c0-1.5-1.4-3.5-4.2-6.1l-2-1.9c-2.6-2.4-3.9-4.6-3.9-6.7c0-2.4,0.9-4.3,2.8-5.8c1.8-1.5,4.2-2.3,7.1-2.3c1.5,0,2.7,0.2,3.7,0.7
				c0.9,0.5,1.4,1.1,1.4,1.8c0,0.7-0.3,1.6-1,2.5c-1.1-2.1-2.8-3.1-5.2-3.1c-1.5,0-2.8,0.5-3.8,1.4c-1,0.9-1.5,2.1-1.5,3.4
				c0,0.9,0.2,1.6,0.5,2.1c0.3,0.5,1.4,1.5,3.1,3.1l1.7,1.5c3,2.8,4.5,5.3,4.5,7.6c0,2.6-1,4.8-3.1,6.5c-2.1,1.7-4.7,2.6-7.8,2.6
				c-2.1,0-3.8-0.5-5.2-1.5c-1.4-1-2.1-2.2-2.1-3.7C399.6-302.4,400.5-303.5,402.1-304.8z"/>
			<path class="st1" d="M445-306c0.2,0.6,0.4,1,0.4,1.3c0,1.6-1.4,3.2-4.1,4.7s-5.5,2.3-8.4,2.3c-3.1,0-5.6-0.9-7.5-2.8
				c-1.8-1.8-2.7-4.3-2.7-7.5c0-5,1.6-9.4,4.9-13c3.3-3.6,7.2-5.4,11.8-5.4c1.9,0,3.4,0.3,4.7,1c1.3,0.7,1.9,1.5,1.9,2.4
				c0,0.9-0.6,1.8-1.7,2.8c-1.5-3-3.6-4.5-6.3-4.5c-3,0-5.6,1.6-7.8,4.7c-2.2,3.1-3.3,6.7-3.3,10.9c0,2.6,0.7,4.7,2,6.3
				c1.3,1.5,3.1,2.3,5.4,2.3C438.2-300.4,441.7-302.3,445-306z"/>
			<path class="st1" d="M455.1-307.4l-0.4,0.7c-1.5,2.9-2.3,5.1-2.3,6.7c0,0.5,0.2,0.9,0.5,1.4c-0.3,0.1-1,0.3-2,0.7
				c-0.5,0.2-0.9,0.3-1.4,0.3c-0.9,0-1.3-0.4-1.3-1.2c0-1.7,1.1-4.3,3.2-7.8l0.6-0.9h-0.9c-2,0-3.6,0.3-4.7,0.9
				c0.6-2.1,2.1-3.1,4.7-3.1l2.3,0.1l0.5-0.7c1.9-2.9,4.9-6.8,8.9-11.7c1.3-1.7,2.3-2.7,3-3.1c0.7-0.4,2-0.8,3.9-1.1
				c-0.4,2.2-0.5,4.3-0.5,6.2c0,5.1,0.6,10.2,1.8,15.4c0.6,2.9,1.6,4.7,2.9,5.5c-1.2,1.1-2.1,1.7-3,1.7c-1.9,0-3.4-3.3-4.5-10
				c-2,0.2-4.1,0.3-6.1,0.3L455.1-307.4z M456.5-309.6l3.7,0.1c2.5,0,4.5-0.1,5.9-0.3c-0.6-4.3-0.8-7.9-0.8-10.7l0-1.4
				c-0.4,0.5-1.3,1.6-2.7,3.4c-2.6,3.1-4.4,5.9-5.6,8.2L456.5-309.6z"/>
			<path class="st1" d="M498.5-302.4c-0.4,1.2-0.9,2.1-1.4,2.6c-0.6,0.6-2,1-4.2,1.4c-2.2,0.4-4.6,0.6-7.1,0.6c-3.9,0-5.9-1.3-5.9-4
				c0-0.8,0.2-2.2,0.6-4.3l3.6-18.1c0.2-1,0.3-1.8,0.3-2.3c0-0.4-0.1-0.8-0.4-1.2c1.6-0.6,2.8-0.9,3.4-0.9c0.8,0,1.1,0.4,1.1,1.3
				c0,0.2-0.2,1.3-0.6,3.2l-3.2,16.2c-0.5,2.3-0.7,3.9-0.7,4.9c0,1.5,1.7,2.3,5.1,2.3C492.1-300.5,495.3-301.1,498.5-302.4z"/>
			<path class="st0" d="M225.9-262.1l-0.4,0.7c-1.5,2.9-2.3,5.1-2.3,6.7c0,0.5,0.2,0.9,0.5,1.4c-0.3,0.1-1,0.3-2,0.7
				c-0.5,0.2-0.9,0.3-1.4,0.3c-0.9,0-1.3-0.4-1.3-1.2c0-1.7,1.1-4.3,3.2-7.8l0.6-0.9h-0.9c-2,0-3.6,0.3-4.7,0.9
				c0.6-2.1,2.1-3.1,4.7-3.1l2.3,0.1l0.5-0.7c1.9-2.9,4.9-6.8,8.9-11.7c1.3-1.7,2.3-2.7,3-3.1c0.7-0.4,2-0.8,3.9-1.1
				c-0.4,2.2-0.5,4.3-0.5,6.2c0,5.1,0.6,10.2,1.8,15.4c0.6,2.9,1.6,4.7,2.9,5.5c-1.2,1.1-2.1,1.7-3,1.7c-1.9,0-3.4-3.3-4.5-10
				c-2,0.2-4.1,0.3-6.1,0.3L225.9-262.1z M227.3-264.2l3.7,0.1c2.5,0,4.5-0.1,5.9-0.3c-0.6-4.3-0.8-7.9-0.8-10.7l0-1.4
				c-0.4,0.5-1.3,1.6-2.7,3.4c-2.6,3.1-4.4,5.9-5.6,8.2L227.3-264.2z"/>
			<path class="st0" d="M249.7-259.4c0,2,0.6,3.6,1.7,4.7c1.1,1.1,2.6,1.7,4.6,1.7c1.7,0,3.2-0.5,4.5-1.6c1.3-1,1.9-2.2,1.9-3.6
				c0-1.5-1.4-3.5-4.2-6.1l-2-1.9c-2.6-2.4-3.9-4.6-3.9-6.7c0-2.4,0.9-4.3,2.8-5.8c1.8-1.5,4.2-2.3,7.1-2.3c1.5,0,2.7,0.2,3.7,0.7
				s1.4,1.1,1.4,1.8c0,0.7-0.3,1.6-1,2.5c-1.1-2.1-2.8-3.1-5.2-3.1c-1.5,0-2.8,0.5-3.8,1.4c-1,0.9-1.5,2.1-1.5,3.4
				c0,0.9,0.2,1.6,0.5,2.1c0.3,0.5,1.4,1.5,3.1,3.1l1.7,1.5c3,2.8,4.5,5.3,4.5,7.6c0,2.6-1,4.8-3.1,6.5s-4.7,2.6-7.8,2.6
				c-2.1,0-3.8-0.5-5.2-1.5c-1.4-1-2.1-2.2-2.1-3.7C247.2-257.1,248-258.2,249.7-259.4z"/>
			<path class="st0" d="M277.8-266.6l-0.9,4.7c-0.4,2-0.6,3.4-0.6,4.2c0,1.6,1.6,2.5,4.8,2.5c3.1,0,5.9-0.6,8.3-1.7
				c-0.6,1.8-1.5,3-2.8,3.4c-0.8,0.3-2.1,0.5-4,0.8c-1.9,0.3-3.4,0.4-4.4,0.4c-4,0-6-1.3-6-4c0-0.7,0.2-2.1,0.6-4.1l1.2-6.2h-0.3
				c-1.2,0-2.4,0.3-3.6,0.8c0.7-1.3,1.2-2.2,1.7-2.5c0.4-0.4,1.1-0.6,2.1-0.6h0.6l1.8-9.1h-0.5c-2.3,0-4.4,0.7-6.3,2.2
				c0.6-2,1.5-3.2,2.5-3.8c0.8-0.4,3.4-0.6,7.7-0.6h5.5c3.5,0,6.3-0.3,8.5-1c-1,1.5-1.8,2.5-2.6,2.8s-2.4,0.5-4.9,0.5h-6l-1.8,9.1
				h3.8c2.7,0,4.8-0.3,6.4-1c-0.8,1.6-1.6,2.5-2.2,2.8c-0.7,0.3-2.2,0.5-4.6,0.5H277.8z"/>
			<path class="st0" d="M294.3-259.4c0,2,0.6,3.6,1.7,4.7c1.1,1.1,2.6,1.7,4.6,1.7c1.7,0,3.2-0.5,4.5-1.6c1.3-1,1.9-2.2,1.9-3.6
				c0-1.5-1.4-3.5-4.2-6.1l-2-1.9c-2.6-2.4-3.9-4.6-3.9-6.7c0-2.4,0.9-4.3,2.8-5.8c1.8-1.5,4.2-2.3,7.1-2.3c1.5,0,2.7,0.2,3.7,0.7
				s1.4,1.1,1.4,1.8c0,0.7-0.3,1.6-1,2.5c-1.1-2.1-2.8-3.1-5.2-3.1c-1.5,0-2.8,0.5-3.8,1.4c-1,0.9-1.5,2.1-1.5,3.4
				c0,0.9,0.2,1.6,0.5,2.1c0.3,0.5,1.4,1.5,3.1,3.1l1.7,1.5c3,2.8,4.5,5.3,4.5,7.6c0,2.6-1,4.8-3.1,6.5s-4.7,2.6-7.8,2.6
				c-2.1,0-3.8-0.5-5.2-1.5c-1.4-1-2.1-2.2-2.1-3.7C291.8-257.1,292.6-258.2,294.3-259.4z"/>
			<path class="st0" d="M327.5-277.2c1.9-2.5,4.4-3.8,7.5-3.8c2.7,0,4.9,1,6.6,2.9c1.7,1.9,2.6,4.4,2.6,7.4c0,4.6-1.9,8.9-5.6,12.7
				c-3.7,3.8-7.9,5.7-12.4,5.7c-3.3,0-6-1.1-8.1-3.2c-2.1-2.2-3.2-4.9-3.2-8.2c0-3.6,1.2-6.7,3.6-9.3
				C321.1-275.6,324-277,327.5-277.2z M326.1-275.2c-2.2,0.5-3.9,1.7-5.2,3.5c-1.3,1.8-1.9,4.1-1.9,6.7c0,3,0.9,5.4,2.6,7.3
				c1.7,1.9,3.9,2.9,6.6,2.9c3.2,0,6-1.5,8.5-4.5c2.4-3,3.7-6.5,3.7-10.5c0-2.3-0.6-4.3-1.8-5.8c-1.2-1.6-2.7-2.4-4.5-2.4
				c-1.8,0-3.4,0.7-4.7,2.2c-1.3,1.5-2,3.2-2,5.2c0,1.4,0.3,2.7,1,3.9c-1.3-0.2-2.2-0.6-2.7-1.1c-0.5-0.5-0.7-1.3-0.7-2.5
				C324.9-271.8,325.3-273.4,326.1-275.2z"/>
			<path class="st0" d="M347-270.5c-0.5-0.6-0.8-1.3-0.8-2.1c0-2,1.7-3.9,5.2-5.7c3.5-1.8,7.2-2.7,11.1-2.7c6.1,0,9.2,1.9,9.2,5.8
				c0,1.9-0.7,3.5-2,4.8s-3.6,2.7-6.9,4.1c2.9,6.7,5.5,10.1,7.6,10.1c1.1,0,2.3-0.8,3.6-2.4c0.1,0.3,0.1,0.5,0.1,0.6
				c0,1-0.6,2.1-1.8,3.2c-1.2,1.1-2.4,1.7-3.5,1.7c-2.9,0-6-3.9-9.2-11.8c-0.7,0.2-1.2,0.3-1.8,0.3c-0.3,0-0.5,0-0.7-0.1
				c0.5-2.3,1.6-3.5,3.5-3.5c0.4,0,0.8,0.1,1.4,0.2c4-1.4,6.1-3.6,6.1-6.7c0-1.2-0.6-2.1-1.7-2.9c-1.2-0.7-2.6-1.1-4.4-1.1
				c-3,0-5.9,0.8-8.7,2.3C350.4-274.8,348.4-272.9,347-270.5z M353.7-251.2c-1.3,0.6-2.4,0.9-3.4,0.9c-0.6,0-1-0.3-1-0.8
				c0-0.3,0.1-1,0.4-2.3l3.5-17.9c0.2-1,0.3-1.8,0.3-2.2c0-0.4-0.1-0.8-0.4-1.2c1.6-0.6,2.8-0.9,3.4-0.9c0.8,0,1.2,0.4,1.2,1.3
				c0,0.2-0.2,1.3-0.6,3.2l-3.3,16.4c-0.2,1.1-0.4,2-0.4,2.4C353.5-251.9,353.5-251.6,353.7-251.2z"/>
			<path class="st0" d="M385.3-266.6l-0.9,4.7c-0.4,2-0.6,3.4-0.6,4.2c0,1.6,1.6,2.5,4.8,2.5c3.1,0,5.9-0.6,8.3-1.7
				c-0.6,1.8-1.5,3-2.8,3.4c-0.8,0.3-2.1,0.5-4,0.8c-1.9,0.3-3.4,0.4-4.4,0.4c-4,0-6-1.3-6-4c0-0.7,0.2-2.1,0.6-4.1l1.2-6.2h-0.3
				c-1.2,0-2.4,0.3-3.6,0.8c0.7-1.3,1.2-2.2,1.7-2.5c0.4-0.4,1.1-0.6,2.1-0.6h0.6l1.8-9.1h-0.5c-2.3,0-4.4,0.7-6.3,2.2
				c0.6-2,1.5-3.2,2.5-3.8c0.8-0.4,3.4-0.6,7.7-0.6h5.5c3.5,0,6.3-0.3,8.5-1c-1,1.5-1.8,2.5-2.6,2.8s-2.4,0.5-4.9,0.5h-6l-1.8,9.1
				h3.8c2.7,0,4.8-0.3,6.4-1c-0.8,1.6-1.6,2.5-2.2,2.8c-0.7,0.3-2.2,0.5-4.6,0.5H385.3z"/>
			<path class="st0" d="M401.8-259.4c0,2,0.6,3.6,1.7,4.7c1.1,1.1,2.6,1.7,4.6,1.7c1.7,0,3.2-0.5,4.5-1.6c1.3-1,1.9-2.2,1.9-3.6
				c0-1.5-1.4-3.5-4.2-6.1l-2-1.9c-2.6-2.4-3.9-4.6-3.9-6.7c0-2.4,0.9-4.3,2.8-5.8c1.8-1.5,4.2-2.3,7.1-2.3c1.5,0,2.7,0.2,3.7,0.7
				s1.4,1.1,1.4,1.8c0,0.7-0.3,1.6-1,2.5c-1.1-2.1-2.8-3.1-5.2-3.1c-1.5,0-2.8,0.5-3.8,1.4c-1,0.9-1.5,2.1-1.5,3.4
				c0,0.9,0.2,1.6,0.5,2.1c0.3,0.5,1.4,1.5,3.1,3.1l1.7,1.5c3,2.8,4.5,5.3,4.5,7.6c0,2.6-1,4.8-3.1,6.5s-4.7,2.6-7.8,2.6
				c-2.1,0-3.8-0.5-5.2-1.5c-1.4-1-2.1-2.2-2.1-3.7C399.3-257.1,400.2-258.2,401.8-259.4z"/>
		</g>
	</g>
</g>
<g>
	<text transform="matrix(1 0 0 1 253.7901 -557.1464)"><tspan x="0" y="0" class="st0" style="font-family:'Aileron-Black'; font-size:13.4303px;">ASTURFISCAL</tspan><tspan x="11.1" y="16.1" class="st0" style="font-family:'Aileron-Black'; font-size:13.4303px;">ASESORES</tspan></text>
</g>
<g>
	<polyline class="st2" points="279.3,-634.5 292.8,-601.6 265.7,-601.6 279.3,-634.5 322.2,-634.5 335.7,-601.6 308.6,-601.6 
		322.2,-634.5 	"/>
	<line class="st2" x1="300.7" y1="-581.9" x2="300.7" y2="-645"/>
	<line class="st2" x1="280.7" y1="-581.9" x2="320.7" y2="-581.9"/>
</g>
<g>
	<g>
		<text transform="matrix(1 0 0 1 779.6777 -368.9527)"><tspan x="0" y="0" style="fill:#FFFFFF; font-family:'Aileron-Black'; font-size:10.9047px;">ASTURFISCAL</tspan><tspan x="9" y="13.1" style="fill:#FFFFFF; font-family:'Aileron-Black'; font-size:10.9047px;">ASESORES</tspan></text>
	</g>
	<g>
		<polyline class="st3" points="796.3,-446.7 809.9,-413.8 782.8,-413.8 796.3,-446.7 839.2,-446.7 852.8,-413.8 825.7,-413.8 
			839.2,-446.7 		"/>
		<line class="st3" x1="817.8" y1="-394.2" x2="817.8" y2="-457.3"/>
		<line class="st3" x1="797.8" y1="-394.2" x2="837.8" y2="-394.2"/>
	</g>
</g>
<g>
	<g>
		<g>
			<text transform="matrix(1 0 0 1 882.8969 -368.9528)"><tspan x="0" y="0" class="st0" style="font-family:'Aileron-Black'; font-size:10.9047px;">ASTURFISCAL</tspan><tspan x="9" y="13.1" class="st0" style="font-family:'Aileron-Black'; font-size:10.9047px;">ASESORES</tspan></text>
		</g>
	</g>
	<g>
		<polyline class="st2" points="899.6,-446.7 913.1,-413.8 886,-413.8 899.6,-446.7 942.4,-446.7 956,-413.8 928.9,-413.8 
			942.4,-446.7 		"/>
		<line class="st2" x1="921" y1="-394.2" x2="921" y2="-457.3"/>
		<line class="st2" x1="901" y1="-394.2" x2="941" y2="-394.2"/>
	</g>
</g>
<g>
	<g>
		<g>
			<text transform="matrix(1 0 0 1 779.6766 -240.7473)"><tspan x="0" y="0" class="st7" style="font-family:'Aileron-Black'; font-size:10.9047px;">ASTURFISCAL</tspan><tspan x="9" y="13.1" class="st7" style="font-family:'Aileron-Black'; font-size:10.9047px;">ASESORES</tspan></text>
		</g>
	</g>
	<g>
		<polyline class="st4" points="796.3,-318.5 809.9,-285.6 782.8,-285.6 796.3,-318.5 839.2,-318.5 852.8,-285.6 825.7,-285.6 
			839.2,-318.5 		"/>
		<line class="st4" x1="817.8" y1="-266" x2="817.8" y2="-329"/>
		<line class="st4" x1="797.8" y1="-266" x2="837.8" y2="-266"/>
	</g>
</g>
<g>
	<g>
		<text transform="matrix(1 0 0 1 800.1286 -201.5097)"><tspan x="0" y="0" class="st0" style="font-family:'Aileron-Black'; font-size:8.8559px;">ASTURFISCAL</tspan><tspan x="0" y="10.6" class="st0" style="font-family:'Aileron-Black'; font-size:8.8559px;">ASESORES</tspan></text>
	</g>
	<g>
		<polyline class="st5" points="777.9,-207 781.9,-197.3 773.9,-197.3 777.9,-207 790.5,-207 794.5,-197.3 786.5,-197.3 790.5,-207 
					"/>
		<line class="st5" x1="784.2" y1="-191.5" x2="784.2" y2="-210.1"/>
		<line class="st5" x1="778.3" y1="-191.5" x2="790.1" y2="-191.5"/>
	</g>
</g>
<g>
	<g>
		<path class="st0" d="M41.9,10.3l-0.7,2.2h-2.4l3.1-8.7h2.8l3.1,8.7h-2.5l-0.7-2.2H41.9z M42.5,8.5h1.6l-0.8-2.7L42.5,8.5z"/>
		<path class="st0" d="M55,6.5h-2.3c-0.1-0.7-0.5-1.2-1.2-1.2c-0.5,0-0.9,0.3-0.9,0.8c0,0.6,0.4,0.9,1.8,1.2
			c1.9,0.5,2.7,1.4,2.7,2.7c0,1.7-1.7,2.6-3.4,2.6c-2.2,0-3.7-0.9-3.8-2.8h2.3c0.2,0.8,0.8,1.2,1.5,1.2c0.6,0,1.1-0.3,1.1-0.8
			c0-0.5-0.3-0.8-1.4-1.1c-2-0.5-3.1-1.1-3.1-2.8c0-1.7,1.6-2.6,3.3-2.6C53.8,3.7,54.8,4.9,55,6.5z"/>
		<path class="st0" d="M60.6,5.6v6.9h-2.3V5.6h-2.8V3.8h7.9v1.8H60.6z"/>
		<path class="st0" d="M71.9,8.7c0,0.4,0,0.7,0,1.2c-0.1,1.5-1.1,2.8-3.8,2.8c-2.7,0-3.7-1.3-3.8-2.8c0-0.5,0-0.8,0-1.2V3.8h2.3v5.3
			c0,0.2,0,0.4,0,0.5C66.5,10.5,67,11,68,11s1.5-0.5,1.6-1.4c0-0.2,0-0.3,0-0.5V3.8h2.3V8.7z"/>
		<path class="st0" d="M80.8,12.5h-2.5c-0.2-0.6-0.3-1.1-0.4-1.7c-0.1-1-0.5-1.5-1.1-1.5c-0.3,0-0.5,0-0.7,0h-0.5v3.3h-2.3V3.8h3.4
			c0.5,0,0.9,0,1.4,0.1c1.3,0.2,2.4,0.8,2.4,2.3c0,1.1-0.6,1.8-1.7,2.2c0.9,0.3,1.2,1,1.4,2C80.2,11.4,80.4,12,80.8,12.5z M76.4,7.6
			c0.2,0,0.4,0,0.6,0c0.6,0,1.1-0.3,1.1-1c0-0.7-0.5-0.9-1-1c-0.2,0-0.4,0-0.6,0h-0.9v2H76.4z"/>
		<path class="st0" d="M84.2,7.3h3.9v1.8h-3.9v3.5h-2.3V3.8h6.5v1.8h-4.3V7.3z"/>
		<path class="st0" d="M89.7,12.5V3.8h2.3v8.7H89.7z"/>
		<path class="st0" d="M100.1,6.5h-2.3c-0.1-0.7-0.5-1.2-1.2-1.2c-0.5,0-0.9,0.3-0.9,0.8c0,0.6,0.4,0.9,1.8,1.2
			c1.9,0.5,2.7,1.4,2.7,2.7c0,1.7-1.7,2.6-3.4,2.6c-2.2,0-3.7-0.9-3.8-2.8h2.3c0.2,0.8,0.8,1.2,1.5,1.2c0.6,0,1.1-0.3,1.1-0.8
			c0-0.5-0.3-0.8-1.4-1.1c-2-0.5-3.1-1.1-3.1-2.8c0-1.7,1.6-2.6,3.3-2.6C98.9,3.7,99.9,4.9,100.1,6.5z"/>
		<path class="st0" d="M109.4,6.7l0,0.1h-2.3l0-0.1c-0.2-0.9-0.8-1.4-1.7-1.4c-1.1,0-1.9,0.9-1.9,2.8c0,2.2,0.9,2.9,1.9,2.9
			c0.9,0,1.4-0.5,1.6-1.5l0-0.1h2.3l0,0.1c-0.2,2.1-1.8,3.2-4,3.2c-2.3,0-4.2-1.5-4.2-4.4c0-3,1.9-4.6,4.3-4.6
			C107.9,3.7,109.2,5,109.4,6.7z"/>
		<path class="st0" d="M112.5,10.3l-0.7,2.2h-2.4l3.1-8.7h2.8l3.1,8.7H116l-0.7-2.2H112.5z M113.1,8.5h1.6l-0.8-2.7L113.1,8.5z"/>
		<path class="st0" d="M125.9,12.5h-6.6V3.8h2.3v6.8h4.4V12.5z"/>
		<path class="st0" d="M41.9,25.4l-0.7,2.2h-2.4l3.1-8.7h2.8l3.1,8.7h-2.5l-0.7-2.2H41.9z M42.5,23.6h1.6l-0.8-2.7L42.5,23.6z"/>
		<path class="st0" d="M55,21.6h-2.3c-0.1-0.7-0.5-1.2-1.2-1.2c-0.5,0-0.9,0.3-0.9,0.8c0,0.6,0.4,0.9,1.8,1.2
			c1.9,0.5,2.7,1.4,2.7,2.7c0,1.7-1.7,2.6-3.4,2.6c-2.2,0-3.7-0.9-3.8-2.8h2.3c0.2,0.8,0.8,1.2,1.5,1.2c0.6,0,1.1-0.3,1.1-0.8
			c0-0.5-0.3-0.8-1.4-1.1c-2-0.5-3.1-1.1-3.1-2.8c0-1.7,1.6-2.6,3.3-2.6C53.8,18.8,54.8,20,55,21.6z"/>
		<path class="st0" d="M63,27.6h-6.6v-8.7h6.5v1.8h-4.3v1.7h4v1.8h-4v1.7H63V27.6z"/>
		<path class="st0" d="M70.9,21.6h-2.3c-0.1-0.7-0.5-1.2-1.2-1.2c-0.5,0-0.9,0.3-0.9,0.8c0,0.6,0.4,0.9,1.8,1.2
			c1.9,0.5,2.7,1.4,2.7,2.7c0,1.7-1.7,2.6-3.4,2.6c-2.2,0-3.7-0.9-3.8-2.8h2.3c0.2,0.8,0.8,1.2,1.5,1.2c0.6,0,1.1-0.3,1.1-0.8
			c0-0.5-0.3-0.8-1.4-1.1c-2-0.5-3.1-1.1-3.1-2.8c0-1.7,1.6-2.6,3.3-2.6C69.7,18.8,70.7,20,70.9,21.6z"/>
		<path class="st0" d="M80.8,23.3c0,2.8-1.7,4.5-4.4,4.5c-2.7,0-4.4-1.7-4.4-4.5c0-2.8,1.7-4.5,4.4-4.5
			C79.1,18.8,80.8,20.5,80.8,23.3z M78.5,23.3c0-1.8-0.8-2.9-2.1-2.9c-1.3,0-2.1,1-2.1,2.9c0,1.8,0.8,2.9,2.1,2.9
			C77.7,26.1,78.5,25.1,78.5,23.3z"/>
		<path class="st0" d="M89.6,27.6h-2.5c-0.2-0.6-0.3-1.1-0.4-1.7c-0.1-1-0.5-1.5-1.1-1.5c-0.3,0-0.5,0-0.7,0h-0.5v3.3h-2.3v-8.7h3.4
			c0.5,0,0.9,0,1.4,0.1c1.3,0.2,2.4,0.8,2.4,2.3c0,1.1-0.6,1.8-1.7,2.2c0.9,0.3,1.2,1,1.4,2C89.1,26.5,89.3,27.1,89.6,27.6z
			 M85.3,22.7c0.2,0,0.4,0,0.6,0c0.6,0,1.1-0.3,1.1-1c0-0.7-0.5-0.9-1-1c-0.2,0-0.4,0-0.6,0h-0.9v2H85.3z"/>
		<path class="st0" d="M97.4,27.6h-6.6v-8.7h6.5v1.8H93v1.7h4v1.8h-4v1.7h4.4V27.6z"/>
		<path class="st0" d="M105.3,21.6H103c-0.1-0.7-0.5-1.2-1.2-1.2c-0.5,0-0.9,0.3-0.9,0.8c0,0.6,0.4,0.9,1.8,1.2
			c1.9,0.5,2.7,1.4,2.7,2.7c0,1.7-1.7,2.6-3.4,2.6c-2.2,0-3.7-0.9-3.8-2.8h2.3c0.2,0.8,0.8,1.2,1.5,1.2c0.6,0,1.1-0.3,1.1-0.8
			c0-0.5-0.3-0.8-1.4-1.1c-2-0.5-3.1-1.1-3.1-2.8c0-1.7,1.6-2.6,3.3-2.6C104.1,18.8,105.1,20,105.3,21.6z"/>
	</g>
	<path class="st0" d="M17.1,5.7h6.5l-5.7,13.7h14.3L25.7,3.8h-8.6V0.4h-2v3.4H6.5L0,19.5h14.3L8.6,5.7h6.5v20H7.7v2h16.7v-2h-7.4
		V5.7z M29.2,17.5h-8.3L25,7.4L29.2,17.5z M11.3,17.5H3L7.1,7.4L11.3,17.5z"/>
</g>
<g>
	<g>
		<text transform="matrix(1 0 0 1 903.8315 -202.2206)"><tspan x="0" y="0" class="st7" style="font-family:'Aileron-Black'; font-size:8.8559px;">ASTURFISCAL</tspan><tspan x="0" y="10.6" class="st7" style="font-family:'Aileron-Black'; font-size:8.8559px;">ASESORES</tspan></text>
	</g>
	<g>
		<polyline class="st6" points="881.6,-207.7 885.6,-198 877.6,-198 881.6,-207.7 894.2,-207.7 898.2,-198 890.2,-198 894.2,-207.7 
					"/>
		<line class="st6" x1="887.9" y1="-192.2" x2="887.9" y2="-210.8"/>
		<line class="st6" x1="882" y1="-192.2" x2="893.8" y2="-192.2"/>
	</g>
</g>
<g>
	<text transform="matrix(1 0 0 1 396.5894 -567.1683)"><tspan x="0" y="0" class="st0" style="font-family:'Aileron-Black'; font-size:12.3214px;">ASTURFISCAL</tspan><tspan x="10.2" y="14.8" class="st0" style="font-family:'Aileron-Black'; font-size:12.3214px;">ASESORES</tspan></text>
</g>
<g>
	<polyline class="st3" points="422.5,-645 433.3,-618.6 411.6,-618.6 422.5,-645 456.8,-645 467.7,-618.6 446,-618.6 456.8,-645 	
		"/>
	<line class="st3" x1="439.6" y1="-602.9" x2="439.6" y2="-653.5"/>
	<line class="st3" x1="423.6" y1="-602.9" x2="455.7" y2="-602.9"/>
</g>
<polygon class="st7" points="869.6,-343.1 869.6,-239.4 869.6,-218.7 973.3,-218.7 973.3,-239.4 973.3,-343.1 "/>
<g>
	<g>
		<text transform="matrix(1 0 0 1 883.3809 -244.5089)"><tspan x="0" y="0" style="fill:#FFFFFF; font-family:'Aileron-Black'; font-size:10.9047px;">ASTURFISCAL</tspan><tspan x="9" y="13.1" style="fill:#FFFFFF; font-family:'Aileron-Black'; font-size:10.9047px;">ASESORES</tspan></text>
	</g>
	<g>
		<polyline class="st3" points="900,-322.3 913.6,-289.4 886.5,-289.4 900,-322.3 942.9,-322.3 956.5,-289.4 929.4,-289.4 
			942.9,-322.3 		"/>
		<line class="st3" x1="921.5" y1="-269.7" x2="921.5" y2="-332.8"/>
		<line class="st3" x1="901.5" y1="-269.7" x2="941.5" y2="-269.7"/>
	</g>
</g>
</svg>
