<?xml version="1.0" standalone="no"?>
<!DOCTYPE svg PUBLIC "-//W3C//DTD SVG 20010904//EN"
 "http://www.w3.org/TR/2001/REC-SVG-20010904/DTD/svg10.dtd">
<svg version="1.0" xmlns="http://www.w3.org/2000/svg"
 width="512.000000pt" height="512.000000pt" viewBox="0 0 512.000000 512.000000"
 preserveAspectRatio="xMidYMid meet">
<metadata>
Created by potrace 1.11, written by Peter Selinger 2001-2013
</metadata>
<g transform="translate(0.000000,512.000000) scale(0.100000,-0.100000)"
fill="#000000" stroke="none">
<path d="M1373 4148 l-173 -101 0 -582 0 -582 -502 -290 -503 -290 -3 -204 -2
-204 577 -335 c318 -183 826 -477 1128 -652 l550 -318 115 0 115 0 555 321
c305 177 813 470 1128 652 l572 331 -2 205 -3 204 -502 290 -503 290 0 582 0
582 -176 102 -177 101 -503 -291 -504 -291 -503 291 c-277 160 -506 291 -508
290 -2 0 -82 -46 -176 -101z m947 -1911 l0 -1028 -42 25 c-24 14 -170 99 -325
188 l-283 163 0 1027 0 1026 325 -186 324 -187 1 -1028z m1130 376 l0 -1028
-283 -163 c-155 -89 -301 -174 -324 -188 l-43 -25 0 1028 1 1028 322 187 c177
102 323 187 325 187 1 1 2 -461 2 -1026z m-2254 -750 c-5 -5 -406 227 -406
235 1 4 92 59 203 123 l202 115 3 -234 c1 -129 1 -237 -2 -239z m3134 235 c0
-6 -395 -238 -406 -238 -2 0 -4 108 -4 239 l0 240 205 -117 c112 -64 204 -120
205 -124z"/>
</g>
</svg>
