<svg xmlns="http://www.w3.org/2000/svg" width="248" height="36" fill-rule="evenodd" stroke-linejoin="round" stroke-miterlimit="1.41" clip-rule="evenodd" viewBox="0 0 248 36"><text x="58.17" y="29.84" fill="#1c1c1c" font-family="'Archia-Bold','Archia'" font-size="32" font-weight="700">P<tspan x="76.31 97.59 117.11 129.43" y="29.84 29.84 29.84 29.84">ablo</tspan> Marín</text><path fill="#1c1c1c" fill-rule="nonzero" d="M9.87 13.418V2.021L13.37 0l9.871 5.699L33.112 0l3.5 2.021v11.397l9.87 5.699v4.041l-11.037 6.373-11.037 6.372h-2.334l-11.037-6.372L0 23.158v-4.041l9.87-5.699zm4.667 12.745l6.371 3.678V9.74l-6.371-3.678v20.101zM25.575 9.74v20.101l6.37-3.678V6.062l-6.37 3.678zm11.037 9.067v4.661l4.037-2.33-4.037-2.331zM5.833 21.138l4.037 2.33v-4.661l-4.037 2.331z"/></svg>