<?xml version="1.0" standalone="no"?>
<!DOCTYPE svg PUBLIC "-//W3C//DTD SVG 1.1//EN" "http://www.w3.org/Graphics/SVG/1.1/DTD/svg11.dtd" >
<svg xmlns="http://www.w3.org/2000/svg" xmlns:xlink="http://www.w3.org/1999/xlink" version="1.1">
<metadata></metadata>
<defs>
<font id="archiabold" horiz-adv-x="1277" >
<font-face units-per-em="2048" ascent="1536" descent="-512" />
<missing-glyph horiz-adv-x="512" />
<glyph unicode="&#x2e;&#x2e;&#x2e;" horiz-adv-x="1605" d="M102 145q0 70 53.5 121t125.5 51t123 -50.5t51 -121.5t-51 -121.5t-123 -50.5t-125.5 51t-53.5 121zM627 145q0 70 53 121t125 51t123 -50.5t51 -121.5t-51 -121.5t-123 -50.5t-125 51t-53 121zM1151 145q0 70 53 121t125 51t123 -50.5t51 -121.5t-51 -121.5t-123 -50.5 t-125 51t-53 121z" />
<glyph unicode="&#xb0;C" horiz-adv-x="1972" d="M92 1151q0 128 91 218.5t227 90.5t225.5 -90.5t89.5 -218.5t-89.5 -218.5t-225.5 -90.5q-137 0 -227.5 90.5t-90.5 218.5zM311 1151q0 -42 27.5 -70t71.5 -28q43 0 69.5 28t26.5 70t-26.5 71t-69.5 29t-71 -29t-28 -71zM860 446v541q0 140 69 249.5t178.5 166.5t235.5 57 q127 0 237 -57t179.5 -166.5t69.5 -249.5v-8h-301q0 81 -51.5 135.5t-133.5 54.5q-80 0 -131 -54.5t-51 -135.5v-524q0 -83 50 -137t132 -54q83 0 134 54t51 137h301v-9q0 -140 -69.5 -249.5t-179.5 -166.5t-237 -57q-126 0 -235.5 57t-178.5 166.5t-69 249.5z" />
<glyph horiz-adv-x="0" />
<glyph horiz-adv-x="682" />
<glyph horiz-adv-x="0" />
<glyph horiz-adv-x="0" />
<glyph unicode="&#xd;" horiz-adv-x="0" />
<glyph unicode=" "  horiz-adv-x="512" />
<glyph unicode="&#x09;" horiz-adv-x="512" />
<glyph unicode="&#xa0;" horiz-adv-x="512" />
<glyph unicode="!" horiz-adv-x="659" d="M154 145q0 72 50 122t128 50t126 -50t48 -122t-48 -122t-126 -50t-128 50t-50 122zM184 1434h299l-26 -975h-248z" />
<glyph unicode="&#x22;" horiz-adv-x="901" d="M133 1434h279l-25 -496h-227zM492 1434h276l-25 -496h-227z" />
<glyph unicode="#" horiz-adv-x="1400" d="M82 354l49 260h193l38 183h-186l49 260h195l80 377h278l-82 -377h152l80 377h276l-80 -377h195l-49 -260h-201l-37 -183h195l-51 -260h-197l-78 -354h-278l75 354h-151l-76 -354h-278l77 354h-188zM604 614h150l37 183h-148z" />
<glyph unicode="$" horiz-adv-x="1228" d="M72 489h305q0 -72 38 -124t101 -76v329q-48 11 -84 21t-80.5 27.5t-76 38t-63.5 52t-52 70.5t-32.5 93t-12.5 118q0 155 107.5 272t293.5 144v115h205v-117q80 -14 148.5 -47t126.5 -88.5t91 -141.5t33 -194h-307q0 56 -24 99.5t-68 68.5v-285q52 -11 89.5 -21.5t86 -29 t83 -40t70 -56t57.5 -75.5t36 -99t14 -127q0 -167 -117.5 -288t-318.5 -148v-154h-205v156q-200 28 -322 164.5t-122 342.5zM420 1038q0 -79 96 -120v245q-48 -16 -72 -50.5t-24 -74.5zM721 279q123 35 123 139t-123 149v-288z" />
<glyph unicode="%" horiz-adv-x="1677" d="M102 1145q0 131 93 223t227 92t226.5 -92t92.5 -223t-92.5 -223.5t-226.5 -92.5t-227 92.5t-93 223.5zM162 0l1040 1434h314l-1043 -1434h-311zM311 1145q0 -50 31 -82t80 -33q49 1 79.5 33t30.5 82t-30.5 82t-79.5 33q-49 -1 -80 -33t-31 -82zM936 289q0 131 92.5 223 t226.5 92t227 -92t93 -223t-93 -223.5t-227 -92.5t-226.5 92.5t-92.5 223.5zM1145 289q0 -50 30.5 -82t79.5 -33q49 1 80 33t31 82q0 49 -30.5 80.5t-80.5 33.5q-49 -1 -79.5 -32.5t-30.5 -81.5z" />
<glyph unicode="&#x26;" horiz-adv-x="1447" d="M82 459q0 270 266 413l-143 183v379h860v-281h-553v-23l465 -581q22 83 22 172h295q0 -248 -108 -432l231 -289h-377l-59 76q-159 -103 -365 -103q-118 0 -219 38.5t-169.5 104t-107 154.5t-38.5 189zM383 459q0 -90 67 -141.5t166 -51.5q104 0 181 41l-269 338 q-69 -22 -107 -71t-38 -115z" />
<glyph unicode="'" horiz-adv-x="483" d="M102 1434h279l-25 -496h-227z" />
<glyph unicode="(" horiz-adv-x="819" d="M164 43v1184q0 94 24.5 161t71 104.5t106 54t136.5 16.5h102v-271h-82q-37 0 -53 -16t-16 -51v-1180q0 -37 16 -52.5t53 -15.5h82v-270h-102q-157 0 -247.5 81.5t-90.5 254.5z" />
<glyph unicode=")" horiz-adv-x="819" d="M215 -23h82q37 0 53.5 16t16.5 52v1180q0 35 -16.5 51t-53.5 16h-82v271h102q77 0 136.5 -16.5t106 -54t71 -104.5t24.5 -161v-1184q0 -173 -90.5 -254.5t-247.5 -81.5h-102v270z" />
<glyph unicode="*" horiz-adv-x="958" d="M123 1010v147l217 -27l6 13l-176 139l109 100l133 -170l12 5l-25 217h160l-24 -217l12 -5l133 170l108 -100l-176 -139l6 -13l218 27v-147l-215 24l-7 -16l170 -131l-104 -107l-131 170l-14 -4l24 -217h-160l25 217l-14 4l-131 -170l-105 107l170 131l-6 16z" />
<glyph unicode="+" horiz-adv-x="1017" d="M10 506v264h361v377h276v-377h361v-264h-361v-379h-276v379h-361z" />
<glyph unicode="," horiz-adv-x="626" d="M133 -227l41 538h320l-127 -538h-234z" />
<glyph unicode="-" horiz-adv-x="831" d="M113 465v278h606v-278h-606z" />
<glyph unicode="." horiz-adv-x="618" d="M133 145q0 72 50 122t128 50t126 -50t48 -122t-48 -122t-126 -50t-128 50t-50 122z" />
<glyph unicode="/" horiz-adv-x="1001" d="M41 -221l633 1757h287l-631 -1757h-289z" />
<glyph unicode="0" horiz-adv-x="1214" d="M123 446v541q0 140 69 249.5t178.5 166.5t235.5 57q127 0 237 -57t179.5 -166.5t69.5 -249.5v-541q0 -140 -69.5 -249.5t-179.5 -166.5t-237 -57q-126 0 -235.5 57t-178.5 166.5t-69 249.5zM424 455q0 -83 50 -137t132 -54q83 0 134 54t51 137v524q0 81 -51.5 135.5 t-133.5 54.5q-80 0 -131 -54.5t-51 -135.5v-524z" />
<glyph unicode="1" horiz-adv-x="1046" d="M102 963v301l314 170h319v-1158h240v-276h-819v276h278v850h-22z" />
<glyph unicode="2" horiz-adv-x="1185" d="M123 981q0 91 30.5 175.5t87 153t146 109.5t199.5 41q107 0 196.5 -35t148.5 -93.5t91.5 -135t32.5 -160.5q0 -133 -55 -228.5t-166 -184.5l-398 -318v-22h627v-283h-934v401l502 422q117 95 117 199q0 59 -45.5 103t-120.5 44q-74 0 -122 -53t-48 -135h-289z" />
<glyph unicode="3" horiz-adv-x="1208" d="M123 449h283q3 -88 56.5 -137.5t133.5 -49.5q86 0 139 51.5t53 128.5q0 81 -52.5 132t-153.5 51h-209v331l356 193v22h-577v263h882v-375l-356 -191v-22q166 0 286.5 -121.5t120.5 -280.5q0 -96 -35 -181.5t-98 -149t-157 -101t-205 -37.5q-112 0 -203.5 42.5 t-147.5 111.5t-86 151.5t-30 168.5z" />
<glyph unicode="4" horiz-adv-x="1292" d="M102 311v283l482 840h440v-848h166v-275h-166v-311h-301v311h-621zM410 586h313v540h-25l-288 -518v-22z" />
<glyph unicode="5" horiz-adv-x="1230" d="M123 444h287q3 -88 59.5 -136t136.5 -48q84 0 139.5 54.5t55.5 138.5t-56 142t-147 58q-33 0 -62 -9.5t-47.5 -22.5t-32.5 -26t-20 -23l-6 -9h-278l47 871h823v-277h-555l-18 -301h24q71 59 189 59q129 0 232 -63t158.5 -168.5t55.5 -232.5q0 -208 -143 -343t-353 -135 q-97 0 -181.5 29t-152.5 85t-109.5 148t-45.5 209z" />
<glyph unicode="6" horiz-adv-x="1245" d="M123 457q0 140 88 297l391 680h338l-328 -527l19 -14q32 16 78 16q169 0 291 -131.5t122 -320.5q0 -132 -70 -244t-186.5 -176t-249.5 -64q-205 0 -349 140t-144 344zM430 457q0 -85 54.5 -141t136.5 -56q83 0 138.5 56.5t55.5 140.5q0 83 -55.5 139.5t-138.5 56.5 q-82 0 -136.5 -56.5t-54.5 -139.5z" />
<glyph unicode="7" horiz-adv-x="1146" d="M102 1026v408h942v-334l-471 -1100h-333l497 1135v22h-370v-131h-265z" />
<glyph unicode="8" horiz-adv-x="1183" d="M102 422q0 120 63 216t150 132v23q-66 39 -107.5 115.5t-41.5 164.5q0 117 58.5 206.5t154.5 135t213 45.5t213 -45.5t154.5 -135t58.5 -206.5q0 -88 -42 -164.5t-108 -115.5v-23q87 -36 150 -132t63 -216q0 -198 -136.5 -321.5t-352.5 -123.5t-353 124t-137 321z M406 444q0 -74 46.5 -127t139.5 -53t139.5 53t46.5 127q0 73 -50.5 123.5t-135.5 50.5t-135.5 -50.5t-50.5 -123.5zM451 1055q0 -58 40.5 -101t100.5 -43q64 0 102.5 42t38.5 102q0 59 -39 99t-102 40t-102 -40t-39 -99z" />
<glyph unicode="9" horiz-adv-x="1245" d="M123 977q0 132 70 244t186 175.5t250 63.5q205 0 349 -139.5t144 -343.5q0 -140 -88 -297l-391 -680h-338l328 526l-19 15q-34 -17 -77 -17q-169 0 -291.5 132t-122.5 321zM430 977q0 -83 56 -140t139 -57q81 0 135.5 56.5t54.5 140.5q0 85 -54 141t-136 56 q-83 0 -139 -57t-56 -140z" />
<glyph unicode=":" horiz-adv-x="557" d="M102 145q0 72 50.5 122t128.5 50t126 -50t48 -122t-48 -122t-126 -50t-128.5 50t-50.5 122zM102 834q0 72 50.5 122t128.5 50t126 -50t48 -122t-48 -122t-126 -50t-128.5 50t-50.5 122z" />
<glyph unicode=";" horiz-adv-x="569" d="M102 -227l41 538h320l-127 -538h-234zM115 834q0 72 50 122t128 50t126 -50t48 -122t-48 -122t-126 -50t-128 50t-50 122z" />
<glyph unicode="&#x3c;" horiz-adv-x="1085" d="M102 455v358l881 315v-290l-596 -193v-22l596 -195v-291z" />
<glyph unicode="=" horiz-adv-x="1017" d="M10 299v264h998v-264h-998zM10 700v265h998v-265h-998z" />
<glyph unicode="&#x3e;" horiz-adv-x="1085" d="M102 137v291l596 195v22l-596 193v290l881 -315v-358z" />
<glyph unicode="?" horiz-adv-x="1079" d="M102 1022q0 124 46 221t146 157t243 60q199 0 319.5 -113t120.5 -288q0 -126 -52 -207.5t-145 -138.5l-84 -51q-27 -14 -36 -30.5t-9 -43.5v-131h-286v151q0 88 29 144t112 104l69 41q53 32 80 65t27 87q0 58 -40.5 97.5t-109.5 39.5t-109 -45.5t-40 -118.5h-281z M332 145q0 72 50 122t128 50t126 -50t48 -122t-48 -122t-126 -50t-128 50t-50 122z" />
<glyph unicode="@" horiz-adv-x="1857" d="M82 532q0 176 64.5 332.5t177 271t274.5 181.5t348 67q150 0 283 -42t231.5 -115.5t170.5 -171.5t108.5 -211.5t36.5 -233.5q0 -235 -107.5 -360t-273.5 -125q-88 0 -144.5 32t-91.5 103h-22q-97 -135 -275 -135q-156 0 -260 110t-104 295q0 182 97.5 293t248.5 111 q69 0 125 -29.5t82 -73.5h24v91h260v-482q0 -40 19 -63t53 -23q54 0 92.5 65.5t38.5 184.5q0 108 -37.5 205t-109 174t-186.5 122.5t-259 45.5q-140 0 -257 -52t-193 -139t-118 -197.5t-42 -230.5q0 -180 85 -323.5t221.5 -219t293.5 -75.5q217 0 369 78l108 -199 q-93 -50 -219 -83.5t-258 -33.5q-166 0 -320.5 62.5t-273 172.5t-189.5 272t-71 349zM774 530q0 -74 41.5 -118.5t106.5 -44.5q66 0 108.5 41t42.5 122q0 71 -41.5 116.5t-109.5 45.5q-65 0 -106.5 -43.5t-41.5 -118.5z" />
<glyph unicode="A" horiz-adv-x="1417" d="M10 0l486 1434h430l481 -1434h-322l-92 287h-563l-92 -287h-328zM518 565h385l-182 561h-23z" />
<glyph unicode="B" horiz-adv-x="1316" d="M113 0v262h123v909h-123v263h643q215 0 334.5 -113.5t119.5 -290.5q0 -81 -42.5 -152t-110.5 -110v-12q85 -41 141.5 -122.5t56.5 -193.5q0 -102 -37 -186t-100 -139t-145.5 -85t-173.5 -30h-686zM530 274h228q80 0 133 48.5t53 126.5t-54 125t-134 47h-226v-347z M530 862h222q68 0 110.5 43t42.5 107q0 62 -43.5 103.5t-109.5 41.5h-222v-295z" />
<glyph unicode="C" horiz-adv-x="1595" d="M82 717q0 209 93 378t263 267t385 98q252 0 441 -138.5t260 -389.5h-326q-46 111 -147.5 172t-227.5 61q-184 0 -305 -128t-121 -320q0 -194 121 -321.5t305 -127.5q122 0 224 59.5t151 172.5h326q-47 -169 -151 -289.5t-244.5 -180t-305.5 -59.5q-161 0 -300 57.5 t-235.5 157t-151 237t-54.5 294.5z" />
<glyph unicode="D" horiz-adv-x="1486" d="M113 0v262h123v909h-123v263h563q171 0 309.5 -53t230 -148.5t140.5 -227t49 -288.5q0 -335 -191.5 -526t-537.5 -191h-563zM537 274h139q195 0 304.5 118t109.5 325q0 200 -109.5 320t-304.5 120h-139v-883z" />
<glyph unicode="E" horiz-adv-x="1146" d="M143 0v1434h901v-287h-595v-277h514v-284h-514v-301h616v-285h-922z" />
<glyph unicode="F" horiz-adv-x="1126" d="M143 0v1434h901v-287h-595v-316h557v-284h-557v-547h-306z" />
<glyph unicode="G" horiz-adv-x="1634" d="M82 717q0 208 93.5 377.5t264 267.5t385.5 98q251 0 440.5 -140t260.5 -392h-326q-46 112 -148 174.5t-227 62.5q-191 0 -309.5 -126.5t-118.5 -321.5q0 -196 119.5 -325.5t310.5 -129.5q284 0 387 223h-378v258h716q-3 -162 -48 -294.5t-117.5 -219.5t-167 -146.5 t-193.5 -85.5t-201 -26q-161 1 -300 58.5t-236 157t-152 236.5t-55 294z" />
<glyph unicode="H" horiz-adv-x="1439" d="M143 0v1434h306v-564h544v564h303v-1434h-303v584h-544v-584h-306z" />
<glyph unicode="I" horiz-adv-x="960" d="M133 0v279h193v876h-193v279h694v-279h-196v-876h196v-279h-694z" />
<glyph unicode="J" horiz-adv-x="1085" d="M20 432h306q0 -77 44 -121.5t122 -44.5q83 0 124 50t41 128v703h-393v287h699v-988q0 -98 -27 -180.5t-82.5 -148t-149.5 -103t-219 -37.5q-92 0 -175 29t-148 84t-103.5 143.5t-38.5 198.5z" />
<glyph unicode="K" horiz-adv-x="1343" d="M143 0v1434h306v-551h143l321 551h371l-430 -691l449 -743h-375l-338 596h-141v-596h-306z" />
<glyph unicode="L" horiz-adv-x="1077" d="M143 0v1434h306v-1149h567v-285h-873z" />
<glyph unicode="M" horiz-adv-x="1775" d="M143 0v1434h535l199 -1127h22l199 1127h534v-1434h-297v1126h-22l-205 -1126h-440l-203 1126h-25v-1126h-297z" />
<glyph unicode="N" horiz-adv-x="1462" d="M143 0v1434h521l331 -1127h21v1127h303v-1434h-524l-324 1126h-22v-1126h-306z" />
<glyph unicode="O" horiz-adv-x="1658" d="M82 719q0 207 97 377t268 267t382 97q159 0 298.5 -57.5t238 -156.5t155 -236t56.5 -291q0 -208 -96.5 -378.5t-268.5 -269t-383 -98.5q-159 0 -298.5 57.5t-237.5 156.5t-154.5 237t-56.5 295zM397 719q0 -195 122.5 -323t309.5 -128q185 0 309 128.5t124 322.5 q0 192 -124 319t-309 127q-187 0 -309.5 -127t-122.5 -319z" />
<glyph unicode="P" horiz-adv-x="1191" d="M143 0v1434h510q214 0 345.5 -126t131.5 -335q0 -206 -135 -336.5t-342 -130.5h-204v-506h-306zM449 791h192q82 0 132 51.5t50 130.5q0 77 -50 126.5t-132 49.5h-192v-358z" />
<glyph unicode="Q" horiz-adv-x="1654" d="M82 719q0 155 57 292.5t156 236t237.5 155.5t294.5 57q210 0 381.5 -98t268 -267.5t96.5 -375.5q0 -195 -88.5 -360t-241.5 -265l105 -260h-301l-64 156q-83 -17 -158 -17q-157 0 -295.5 57.5t-236.5 156.5t-154.5 237t-56.5 295zM391 719q0 -195 124.5 -325t311.5 -130 q17 0 45 4l-141 357h301l94 -238q65 60 101.5 146t36.5 186q0 192 -126 321t-311 129q-187 0 -311.5 -129t-124.5 -321z" />
<glyph unicode="R" horiz-adv-x="1236" d="M143 0v1434h494q227 0 369.5 -124.5t142.5 -324.5q0 -145 -66 -253.5t-190 -166.5l313 -565h-348l-264 518h-145v-518h-306zM449 795h192q85 0 137.5 48.5t52.5 135.5q0 74 -51 122t-149 48h-182v-354z" />
<glyph unicode="S" horiz-adv-x="1228" d="M72 489h305q0 -101 72 -161t178 -60q105 0 161 41.5t56 108.5q0 49 -25 83t-67 53t-97 32.5t-115 26.5t-120.5 29t-115.5 46t-97 73t-67 113.5t-25 163.5q0 176 136 299t361 123q73 0 142.5 -15.5t136.5 -52t117.5 -90.5t81 -136.5t30.5 -184.5h-307q0 87 -56.5 142 t-152.5 55q-91 0 -137.5 -41.5t-46.5 -98.5q0 -43 25 -72.5t68 -46.5t98 -29.5t116 -26.5t122.5 -32t116.5 -50.5t98 -78t68 -118.5t25 -168q0 -190 -147.5 -316.5t-393.5 -126.5q-239 0 -391.5 142t-152.5 374z" />
<glyph unicode="T" horiz-adv-x="1171" d="M51 1147v287h1069v-287h-383v-1147h-303v1147h-383z" />
<glyph unicode="U" horiz-adv-x="1376" d="M123 535v899h305v-897q0 -126 66.5 -197.5t193.5 -71.5q126 0 193 72t67 199v895h305v-897q0 -255 -150 -409.5t-415 -154.5q-269 0 -417 152.5t-148 409.5z" />
<glyph unicode="V" horiz-adv-x="1425" d="M20 1434h328l342 -1127h23l354 1127h338l-479 -1434h-441z" />
<glyph unicode="W" horiz-adv-x="1896" d="M20 1434h332l176 -1127h23l170 1127h455l170 -1127h22l176 1127h332l-281 -1434h-460l-174 1126h-25l-174 -1126h-467z" />
<glyph unicode="X" horiz-adv-x="1282" d="M10 0l416 737l-393 697h348l248 -463h26l248 463h346l-393 -697l416 -737h-340l-279 508h-24l-279 -508h-340z" />
<glyph unicode="Y" horiz-adv-x="1355" d="M20 1434h351l291 -514h22l293 514h358l-506 -832v-602h-303v602z" />
<glyph unicode="Z" horiz-adv-x="1359" d="M123 0v412l805 723v22h-783v277h1088v-416l-803 -719v-23h807v-276h-1114z" />
<glyph unicode="[" horiz-adv-x="819" d="M164 -293v1856h440v-269h-153v-1319h153v-268h-440z" />
<glyph unicode="\" horiz-adv-x="1001" d="M41 1536h287l633 -1757h-289z" />
<glyph unicode="]" horiz-adv-x="819" d="M215 -25h154v1319h-154v269h440v-1856h-440v268z" />
<glyph unicode="^" horiz-adv-x="1222" d="M102 627l324 807h373l321 -807h-305l-190 522h-25l-192 -522h-306z" />
<glyph unicode="_" horiz-adv-x="1288" d="M82 -59h1124v-265h-1124v265z" />
<glyph unicode="`" horiz-adv-x="612" d="M102 1534h324l84 -305h-199z" />
<glyph unicode="a" horiz-adv-x="1361" d="M72 541q0 160 66 290t179 202.5t250 72.5q191 0 299 -127h23v100h299v-784q0 -21 13.5 -33t35.5 -12h43v-250h-270q-51 0 -85 34t-34 81h-23q-99 -142 -299 -142q-136 0 -250 74t-180.5 204.5t-66.5 289.5zM375 539q0 -125 75 -202t185 -77q114 0 186 81t72 198 q0 129 -75 203.5t-185 74.5t-184 -76.5t-74 -201.5z" />
<glyph unicode="b" horiz-adv-x="1310" d="M123 0v1536h299v-567h22q111 137 308 137q137 0 249 -75t175 -204.5t63 -285.5q0 -119 -40 -225t-107.5 -181t-160.5 -118.5t-196 -43.5q-196 0 -291 127h-22v-100h-299zM418 539q0 -117 72 -200t186 -83q110 0 185 79t75 204t-73.5 203.5t-184.5 78.5q-110 0 -185 -76.5 t-75 -205.5z" />
<glyph unicode="c" horiz-adv-x="1247" d="M72 539q0 158 68.5 286.5t197.5 204.5t295 76q201 0 346.5 -106t196.5 -304l-277 -69q-25 92 -93.5 143t-164.5 51q-121 0 -193.5 -79.5t-72.5 -202.5q0 -121 73.5 -201t192.5 -80q96 0 163.5 49.5t92.5 138.5l279 -67q-50 -196 -195.5 -301t-347.5 -105q-166 0 -295 77 t-197.5 205t-68.5 284z" />
<glyph unicode="d" horiz-adv-x="1290" d="M72 541q0 156 63 285.5t175 204.5t249 75q196 0 307 -137h23v567h299v-1536h-299v100h-23q-95 -127 -291 -127q-103 0 -196 43.5t-160.5 118.5t-107 181t-39.5 225zM375 539q0 -125 75 -204t185 -79q114 0 186 83t72 200q0 129 -75 205.5t-185 76.5q-111 0 -184.5 -78.5 t-73.5 -203.5z" />
<glyph unicode="e" horiz-adv-x="1232" d="M72 539q0 165 75 295.5t200.5 201t275.5 70.5q162 0 285.5 -75t188 -202.5t64.5 -287.5v-76h-782q1 -104 70.5 -165.5t177.5 -61.5q78 0 141 32.5t92 96.5l266 -62q-28 -88 -80 -153.5t-119 -103.5t-141 -56.5t-155 -18.5q-246 0 -402.5 160t-156.5 406zM381 664h479 q-11 83 -77 138.5t-160 55.5q-99 0 -165 -58t-77 -136z" />
<glyph unicode="f" horiz-adv-x="862" d="M41 815v264h178v123q0 171 94.5 252.5t264.5 81.5h206v-268h-198q-38 0 -54 -16t-16 -52v-121h275v-264h-275v-815h-297v815h-178z" />
<glyph unicode="g" horiz-adv-x="1290" d="M72 541q0 156 63.5 285.5t176 204.5t249.5 75q60 0 110 -12t87.5 -35t60 -42t49.5 -48h23v110h297v-1216q0 -171 -95.5 -252.5t-265.5 -81.5h-487v274h481q68 0 68 74v223h-23q-103 -127 -291 -127q-103 0 -196 43.5t-160.5 118.5t-107 181t-39.5 225zM377 541 q0 -125 74.5 -205t183.5 -80q114 0 186 82t72 203q0 126 -74 203t-184 77q-109 0 -183.5 -78t-74.5 -202z" />
<glyph unicode="h" horiz-adv-x="1191" d="M123 0v1536h299v-555h20q93 125 265 125q168 0 275.5 -110t107.5 -271v-725h-299v629q0 83 -50 135.5t-131 52.5t-134.5 -54t-53.5 -134v-629h-299z" />
<glyph unicode="i" horiz-adv-x="702" d="M82 815v264h475v-1079h-297v815h-178zM236 1397q0 72 51 122t127 50q75 0 125.5 -50t50.5 -122q0 -74 -50.5 -124t-125.5 -50q-76 0 -127 50t-51 124z" />
<glyph unicode="j" horiz-adv-x="731" d="M4 -201h215q36 0 52 16t16 52v948h-205v264h502v-1214q0 -171 -94.5 -253.5t-264.5 -82.5h-221v270zM264 1397q0 72 51 122t127 50q75 0 125.5 -50t50.5 -122q0 -74 -50.5 -124t-125.5 -50q-76 0 -127 50t-51 124z" />
<glyph unicode="k" horiz-adv-x="1136" d="M123 0v1536h299v-819h90l233 362h355l-330 -481v-23l346 -575h-356l-242 442h-96v-442h-299z" />
<glyph unicode="l" horiz-adv-x="829" d="M82 0v266h188v1004h-188v266h487v-1270h189v-266h-676z" />
<glyph unicode="m" horiz-adv-x="1781" d="M123 0v1079h299v-98h22q33 51 96 88t150 37q194 0 285 -158h22q46 70 121 114t178 44q166 0 274.5 -108.5t108.5 -268.5v-729h-299v627q0 91 -44.5 140.5t-116.5 49.5q-73 0 -120.5 -51t-47.5 -139v-627h-297v653q0 75 -47.5 119.5t-118.5 44.5t-118.5 -51.5 t-47.5 -134.5v-631h-299z" />
<glyph unicode="n" horiz-adv-x="1185" d="M123 0v1079h299v-98h20q39 56 106.5 90.5t156.5 34.5q167 0 272.5 -110t105.5 -271v-725h-299v629q0 82 -50 135t-128 53q-81 0 -132.5 -54t-51.5 -136v-627h-299z" />
<glyph unicode="o" horiz-adv-x="1292" d="M72 539q0 243 162.5 405t412.5 162q166 0 297.5 -75t204 -204.5t72.5 -287.5q0 -118 -43 -222.5t-118 -180t-182 -119.5t-231 -44t-232 44t-183 119.5t-117.5 180t-42.5 222.5zM375 539q0 -121 76.5 -201t195.5 -80t195 80t76 201q0 122 -76 202t-195 80t-195.5 -80 t-76.5 -202z" />
<glyph unicode="p" horiz-adv-x="1310" d="M123 -471v1550h299v-100h22q99 127 291 127q138 0 253.5 -73.5t183 -204t67.5 -289.5q0 -156 -63 -285.5t-175 -205t-249 -75.5q-114 0 -191.5 40t-116.5 98h-22v-582h-299zM418 541q0 -131 75 -208t185 -77t184 79.5t74 205.5q0 124 -75 202t-185 78q-114 0 -186 -81.5 t-72 -198.5z" />
<glyph unicode="q" horiz-adv-x="1290" d="M72 539q0 159 68 289.5t184 204t254 73.5q106 0 173 -34t117 -93h23v100h297v-1550h-299v582h-23q-107 -138 -307 -138q-137 0 -249 75t-175 204.5t-63 286.5zM377 541q0 -126 73.5 -205.5t182.5 -79.5q111 0 185.5 77t74.5 208q0 117 -71.5 198.5t-184.5 81.5 q-111 0 -185.5 -78t-74.5 -202z" />
<glyph unicode="r" horiz-adv-x="862" d="M123 0v1079h295v-143h20q37 72 112.5 121t164.5 49h86v-297h-111q-126 0 -198 -77.5t-72 -225.5v-506h-297z" />
<glyph unicode="s" horiz-adv-x="1046" d="M72 324l262 47q9 -71 66 -108.5t139 -37.5q66 0 100.5 23.5t34.5 62.5q0 32 -24.5 53.5t-64 32.5t-90.5 24t-103.5 25t-103.5 37t-90.5 59t-64 92.5t-24.5 135.5q0 141 116.5 238.5t294.5 97.5q171 0 283 -76t147 -221l-258 -70q-17 57 -62.5 89t-105.5 32 q-54 0 -87.5 -21.5t-33.5 -56.5q0 -30 24.5 -50.5t65 -31t91.5 -23t105 -24t105 -36t91.5 -57.5t65 -89.5t24.5 -130.5q0 -165 -121.5 -266t-329.5 -101q-118 0 -212.5 37t-159.5 117.5t-80 196.5z" />
<glyph unicode="t" horiz-adv-x="907" d="M61 815v264h199v295h279v-295h286v-264h-286v-479q0 -36 15.5 -52t51.5 -16h207v-268h-235q-167 0 -252.5 80.5t-85.5 253.5v481h-179z" />
<glyph unicode="u" horiz-adv-x="1165" d="M102 354v725h299v-628q0 -82 50.5 -135.5t128.5 -53.5q81 0 132.5 54.5t51.5 136.5v626h299v-1079h-299v98h-21q-39 -56 -106 -90.5t-156 -34.5q-167 0 -273 110t-106 271z" />
<glyph unicode="v" horiz-adv-x="1144" d="M20 1079h322l217 -794h23l219 794h323l-346 -1079h-409z" />
<glyph unicode="w" horiz-adv-x="1695" d="M20 1079h318l137 -794h23l161 794h377l162 -794h23l137 794h317l-245 -1079h-416l-160 793h-12l-160 -793h-418z" />
<glyph unicode="x" horiz-adv-x="1138" d="M10 0l359 569l-334 510h350l172 -311h23l174 311h348l-322 -532l348 -547h-350l-200 346h-23l-199 -346h-346z" />
<glyph unicode="y" horiz-adv-x="1153" d="M20 1079h324l219 -792h23l219 792h328l-474 -1331q-41 -115 -127.5 -167t-232.5 -52h-178v272h158q44 0 69.5 17t42.5 59l47 123h-57z" />
<glyph unicode="z" horiz-adv-x="1026" d="M82 0v406l569 387v22h-553v264h838v-420l-569 -372v-23h577v-264h-862z" />
<glyph unicode="{" horiz-adv-x="974" d="M164 489v287h86q30 0 49.5 20t19.5 52v379q0 94 24.5 161t71 104.5t106 54t136.5 16.5h103v-271h-82q-37 0 -53.5 -16t-16.5 -51v-426q0 -125 -108 -154v-22q108 -29 108 -154v-424q0 -36 16.5 -52t53.5 -16h82v-270h-103q-157 0 -247.5 81.5t-90.5 254.5v375 q0 31 -20 51t-49 20h-86z" />
<glyph unicode="|" horiz-adv-x="612" d="M164 -422v2026h285v-2026h-285z" />
<glyph unicode="}" horiz-adv-x="974" d="M215 -23h82q37 0 53.5 16t16.5 52v424q0 125 108 154v22q-108 29 -108 154v426q0 35 -16.5 51t-53.5 16h-82v271h102q77 0 136.5 -16.5t106 -54t71 -104.5t24.5 -161v-379q0 -32 20 -52t50 -20h86v-287h-86q-29 0 -49.5 -20.5t-20.5 -50.5v-375q0 -173 -90.5 -254.5 t-247.5 -81.5h-102v270z" />
<glyph unicode="~" horiz-adv-x="1161" d="M102 430q0 168 81.5 268.5t222.5 100.5q52 0 104 -17.5t86 -38t72.5 -38t66.5 -17.5q36 0 58 25.5t22 79.5h244q0 -167 -80.5 -268t-224.5 -101q-64 0 -125.5 27t-112.5 54t-90 27q-35 0 -57.5 -28t-22.5 -74h-244z" />
<glyph unicode="&#xa1;" horiz-adv-x="659" d="M154 975q0 72 50 122t128 50t126 -50t48 -122t-48 -122t-126 -50t-128 50t-50 122zM184 -313l25 975h248l26 -975h-299z" />
<glyph unicode="&#xa2;" horiz-adv-x="1247" d="M72 721q0 208 117.5 361t314.5 194v156h266v-158q151 -32 257.5 -132.5t148.5 -262.5l-277 -70q-25 92 -93.5 143.5t-164.5 51.5q-121 0 -193.5 -80t-72.5 -203q0 -121 73.5 -201t192.5 -80q95 0 163 50t93 139l279 -68q-40 -161 -147 -261t-259 -130v-170h-266v168 q-197 41 -314.5 194.5t-117.5 358.5z" />
<glyph unicode="&#xa3;" horiz-adv-x="1224" d="M102 0v276h121v289h-104v256h104v199q0 190 130 315t323 125q103 0 189.5 -37.5t141 -98.5t85 -135t30.5 -151h-299q0 55 -41.5 93t-103.5 38q-68 0 -111 -43t-43 -114v-191h305v-256h-305v-289h582v-276h-1004z" />
<glyph unicode="&#xa5;" horiz-adv-x="1355" d="M20 1434h351l291 -514h22l293 514h358l-358 -588h162v-246h-310v-113h310v-245h-310v-242h-303v242h-309v245h309v113h-309v246h162z" />
<glyph unicode="&#xa7;" horiz-adv-x="1103" d="M102 -25h273q2 -57 41 -97t112 -40q58 0 97 32t39 81q0 48 -26.5 81.5t-80.5 63.5l-211 123q-225 131 -225 332q0 86 42 149.5t103 92.5v22q-123 113 -123 287q0 124 59 216t155.5 137.5t217.5 45.5q187 0 306.5 -114t119.5 -297h-272q-2 57 -41.5 97t-112.5 40 q-58 0 -96.5 -32t-38.5 -81q0 -48 26.5 -81.5t80.5 -63.5l211 -123q225 -131 225 -332q0 -86 -40 -149.5t-105 -92.5v-22q123 -113 123 -287q0 -124 -59 -216t-156 -137.5t-218 -45.5q-187 0 -306.5 114t-119.5 297zM412 578q0 -61 73 -105l131 -78q36 9 56 34.5t20 57.5 q0 60 -74 105l-131 78q-35 -9 -55 -34.5t-20 -57.5z" />
<glyph unicode="&#xa8;" horiz-adv-x="954" d="M102 1384q0 64 45.5 110t112.5 46q65 0 109.5 -46t44.5 -110q0 -67 -44 -110t-110 -43q-68 0 -113 43t-45 110zM541 1384q0 64 45 110t110 46q71 0 113.5 -45t42.5 -111q0 -68 -43.5 -110.5t-112.5 -42.5q-67 0 -111 43t-44 110z" />
<glyph unicode="&#xa9;" horiz-adv-x="1632" d="M82 713q0 205 93.5 376t261 271t374.5 100q160 0 298.5 -58.5t234.5 -159t151 -238t55 -291.5q0 -155 -54.5 -291.5t-150 -236t-233 -157t-297.5 -57.5q-158 0 -295.5 57.5t-233 157t-150 236.5t-54.5 291zM295 713q0 -151 66 -274t185 -194t269 -71q152 0 271.5 70.5 t185 194t65.5 276.5q0 152 -65.5 274.5t-186.5 194t-274 71.5q-224 0 -370 -155t-146 -387zM438 713q0 170 107 282.5t278 112.5q131 0 225.5 -71t125.5 -195l-175 -31q-19 60 -67.5 91.5t-108.5 31.5q-86 0 -142 -59t-56 -162q0 -104 58 -162.5t142 -58.5q136 0 181 116 l170 -24q-33 -132 -127.5 -199.5t-223.5 -67.5q-172 0 -279.5 113t-107.5 283z" />
<glyph unicode="&#xaa;" horiz-adv-x="1048" d="M72 1038q0 181 106.5 301.5t261.5 120.5q134 0 219 -96h25v76h223v-582q0 -15 10 -26t23 -11h37v-186h-193q-43 0 -69 23.5t-31 62.5h-22q-27 -47 -82.5 -77t-137.5 -30q-155 0 -262.5 121.5t-107.5 302.5zM299 1036q0 -93 56.5 -151t138.5 -58q84 0 138 61t54 148 q0 98 -55.5 154.5t-138.5 56.5t-138 -58.5t-55 -152.5z" />
<glyph unicode="&#xab;" horiz-adv-x="1161" d="M102 489v197l222 301h305l-287 -389v-23l287 -382h-305zM532 489v197l222 301h305l-287 -389v-23l287 -382h-305z" />
<glyph unicode="&#xad;" horiz-adv-x="831" d="M113 465v278h606v-278h-606z" />
<glyph unicode="&#xae;" horiz-adv-x="1060" d="M72 1102q0 125 55.5 227.5t160 163.5t238.5 61q209 0 336 -129t127 -321q0 -191 -126.5 -322t-332.5 -131q-205 0 -331.5 129t-126.5 322zM213 1102q0 -139 85.5 -229.5t231.5 -90.5q148 0 233 89.5t85 232.5q0 142 -86 229.5t-236 87.5q-144 0 -228.5 -89t-84.5 -230z M367 881v442h196q71 0 117.5 -44t46.5 -103q0 -47 -21 -85t-57 -53l84 -157h-125l-65 135h-60v-135h-116zM483 1116h64q27 0 42 14t15 37q0 24 -15.5 39t-41.5 15h-64v-105z" />
<glyph unicode="&#xaf;" horiz-adv-x="788" d="M102 1268v231h584v-231h-584z" />
<glyph unicode="&#xb0;" horiz-adv-x="817" d="M92 1151q0 128 91 218.5t227 90.5t225.5 -90.5t89.5 -218.5t-89.5 -218.5t-225.5 -90.5q-137 0 -227.5 90.5t-90.5 218.5zM311 1151q0 -42 27.5 -70t71.5 -28q43 0 69.5 28t26.5 70t-26.5 71t-69.5 29t-71 -29t-28 -71z" />
<glyph unicode="&#xb2;" horiz-adv-x="659" d="M61 1182q0 110 70 189t193 79q118 0 194 -70t76 -172q0 -121 -125 -223l-225 -186v-15h354v-161h-532v223l278 244q68 57 68 110q0 32 -24 55t-64 23q-42 0 -69.5 -28t-27.5 -70z" />
<glyph unicode="&#xb3;" horiz-adv-x="671" d="M61 872h175q1 -44 27.5 -69t70.5 -25q41 0 67.5 23.5t26.5 64.5q0 37 -25.5 63.5t-74.5 26.5h-125v207l192 94v15h-315v162h493v-238l-192 -88v-14q96 0 162.5 -64.5t66.5 -157.5q0 -114 -78 -190t-202 -76q-126 0 -197.5 79t-71.5 187z" />
<glyph unicode="&#xb4;" horiz-adv-x="612" d="M102 1229l84 305h324l-209 -305h-199z" />
<glyph unicode="&#xb6;" horiz-adv-x="1181" d="M61 1034q0 167 119.5 283.5t288.5 116.5h600v-269h-119v-1257h-227v1257h-92v-1257h-228v731q-147 13 -244.5 129t-97.5 266z" />
<glyph unicode="&#xb7;" horiz-adv-x="557" d="M102 643q0 72 50.5 122t128.5 50t126 -50t48 -122t-48 -122t-126 -50t-128.5 50t-50.5 122z" />
<glyph unicode="&#xb8;" horiz-adv-x="497" d="M102 -432l91 432h202l-37 -432h-256z" />
<glyph unicode="&#xb9;" horiz-adv-x="618" d="M61 1159v178l177 97h180v-650h139v-161h-467v161h160v471h-14z" />
<glyph unicode="&#xba;" horiz-adv-x="1042" d="M92 1036q0 180 121.5 302t308.5 122t307.5 -121.5t120.5 -302.5q0 -179 -120.5 -300.5t-307.5 -121.5t-308.5 121t-121.5 301zM319 1036q0 -90 56.5 -150.5t146.5 -60.5q88 0 145.5 60.5t57.5 150.5q0 91 -57 152t-146 61t-146 -61t-57 -152z" />
<glyph unicode="&#xbb;" horiz-adv-x="1161" d="M102 193l287 382v23l-287 389h306l221 -301v-197l-221 -296h-306zM532 193l287 382v23l-287 389h306l221 -301v-197l-221 -296h-306z" />
<glyph unicode="&#xbc;" horiz-adv-x="1662" d="M61 1159v178l177 97h180v-650h139v-161h-467v161h160v471h-14zM375 -84l815 1602h194l-815 -1602h-194zM977 168v176l278 467h252v-481h95v-162h-95v-168h-168v168h-362zM1153 330h186v303h-14l-172 -289v-14z" />
<glyph unicode="&#xbd;" horiz-adv-x="1732" d="M61 1159v178l177 97h180v-650h139v-161h-467v161h160v471h-14zM375 -84l815 1602h194l-815 -1602h-194zM1135 559q0 110 69.5 189t192.5 79q118 0 194 -70t76 -171q0 -122 -125 -224l-225 -186v-14h354v-162h-532v223l278 244q68 57 68 111q0 32 -24 54.5t-64 22.5 q-41 0 -69 -27.5t-28 -70.5z" />
<glyph unicode="&#xbe;" horiz-adv-x="1642" d="M61 872h175q1 -44 27.5 -69t70.5 -25q41 0 67.5 23.5t26.5 64.5q0 37 -25.5 63.5t-74.5 26.5h-125v207l192 94v15h-315v162h493v-238l-192 -88v-14q96 0 162.5 -64.5t66.5 -157.5q0 -114 -78 -190t-202 -76q-126 0 -197.5 79t-71.5 187zM354 -84l815 1602h195l-815 -1602 h-195zM956 168v176l279 467h252v-481h94v-162h-94v-168h-168v168h-363zM1133 330h186v303h-14l-172 -289v-14z" />
<glyph unicode="&#xbf;" horiz-adv-x="1110" d="M104 61q0 126 52 208t145 139l84 51q27 17 36 31.5t9 41.5v132h287v-152q0 -88 -29.5 -144t-112.5 -104l-69 -41q-35 -21 -54.5 -37.5t-36 -46t-16.5 -67.5q0 -58 40.5 -98t109.5 -40t109 45.5t40 118.5h281q0 -92 -27 -170.5t-79 -139t-136 -94.5t-192 -34 q-199 0 -320 113t-121 288zM397 975q0 72 48 122t126 50t128.5 -50t50.5 -122t-50.5 -122t-128.5 -50t-126 50t-48 122z" />
<glyph unicode="&#xc0;" horiz-adv-x="1417" d="M10 0l486 1434h430l481 -1434h-322l-92 287h-563l-92 -287h-328zM438 1903h324l84 -306h-199zM518 565h385l-182 561h-23z" />
<glyph unicode="&#xc1;" horiz-adv-x="1417" d="M10 0l486 1434h430l481 -1434h-322l-92 287h-563l-92 -287h-328zM518 565h385l-182 561h-23zM584 1597l84 306h323l-209 -306h-198z" />
<glyph unicode="&#xc2;" horiz-adv-x="1417" d="M10 0l486 1434h430l481 -1434h-322l-92 287h-563l-92 -287h-328zM379 1597l194 306h304l192 -306h-225l-109 119h-22l-107 -119h-227zM518 565h385l-182 561h-23z" />
<glyph unicode="&#xc3;" horiz-adv-x="1417" d="M10 0l486 1434h430l481 -1434h-322l-92 287h-563l-92 -287h-328zM346 1612q0 152 67 223.5t169 71.5q58 0 110.5 -19t90.5 -38t61 -19q28 0 44.5 21t16.5 53h201q0 -151 -66 -223t-168 -72q-53 0 -102.5 19t-90 38t-71.5 19q-29 0 -45 -20.5t-16 -53.5h-201zM518 565h385 l-182 561h-23z" />
<glyph unicode="&#xc4;" horiz-adv-x="1417" d="M10 0l486 1434h430l481 -1434h-322l-92 287h-563l-92 -287h-328zM350 1739q0 64 45.5 109.5t112.5 45.5q65 0 109.5 -45.5t44.5 -109.5q0 -67 -44 -110.5t-110 -43.5q-68 0 -113 43.5t-45 110.5zM518 565h385l-182 561h-23zM788 1739q0 64 45.5 109.5t110.5 45.5 q71 0 113.5 -45t42.5 -110q0 -68 -43.5 -111t-112.5 -43q-67 0 -111.5 43.5t-44.5 110.5z" />
<glyph unicode="&#xc5;" horiz-adv-x="1417" d="M10 0l486 1434h430l481 -1434h-322l-92 287h-563l-92 -287h-328zM487 1769q0 94 64 155t162 61q103 0 166 -60t63 -153q0 -95 -63.5 -156.5t-163.5 -61.5t-164 60.5t-64 154.5zM518 565h385l-182 561h-23zM639 1769q0 -33 21.5 -54t54.5 -21q32 0 52.5 22t20.5 56 q0 30 -21 51.5t-54 21.5q-32 0 -53 -22.5t-21 -53.5z" />
<glyph unicode="&#xc6;" horiz-adv-x="1945" d="M10 0l717 1434h1116v-287h-596v-277h514v-284h-514v-301h617v-285h-922v287h-426l-137 -287h-369zM649 565h293v561h-22z" />
<glyph unicode="&#xc7;" horiz-adv-x="1595" d="M82 717q0 209 93 378t263 267t385 98q252 0 441 -138.5t260 -389.5h-326q-46 111 -147.5 172t-227.5 61q-184 0 -305 -128t-121 -320q0 -194 121 -321.5t305 -127.5q122 0 224 59.5t151 172.5h326q-65 -230 -229 -365.5t-386 -159.5l-35 -407h-256l87 412 q-279 40 -451 244.5t-172 492.5z" />
<glyph unicode="&#xc8;" horiz-adv-x="1146" d="M143 0v1434h901v-287h-595v-277h514v-284h-514v-301h616v-285h-922zM340 1903h324l84 -306h-199z" />
<glyph unicode="&#xc9;" horiz-adv-x="1146" d="M143 0v1434h901v-287h-595v-277h514v-284h-514v-301h616v-285h-922zM485 1597l84 306h324l-209 -306h-199z" />
<glyph unicode="&#xca;" horiz-adv-x="1146" d="M143 0v1434h901v-287h-595v-277h514v-284h-514v-301h616v-285h-922zM281 1597l194 306h303l193 -306h-226l-108 119h-23l-106 -119h-227z" />
<glyph unicode="&#xcb;" horiz-adv-x="1146" d="M143 0v1434h901v-287h-595v-277h514v-284h-514v-301h616v-285h-922zM252 1739q0 64 45.5 109.5t112.5 45.5q65 0 109 -45.5t44 -109.5q0 -67 -43.5 -110.5t-109.5 -43.5q-68 0 -113 43.5t-45 110.5zM690 1739q0 64 45.5 109.5t110.5 45.5q71 0 113 -44.5t42 -110.5 q0 -68 -43 -111t-112 -43q-67 0 -111.5 43.5t-44.5 110.5z" />
<glyph unicode="&#xcc;" horiz-adv-x="960" d="M133 0v279h193v876h-193v279h694v-279h-196v-876h196v-279h-694zM207 1903h323l84 -306h-198z" />
<glyph unicode="&#xcd;" horiz-adv-x="960" d="M133 0v279h193v876h-193v279h694v-279h-196v-876h196v-279h-694zM352 1597l84 306h324l-209 -306h-199z" />
<glyph unicode="&#xce;" horiz-adv-x="960" d="M133 0v279h193v876h-193v279h694v-279h-196v-876h196v-279h-694zM147 1597l195 306h303l193 -306h-226l-108 119h-23l-106 -119h-228z" />
<glyph unicode="&#xcf;" horiz-adv-x="960" d="M119 1739q0 64 45 109.5t112 45.5q65 0 109.5 -45.5t44.5 -109.5q0 -67 -44 -110.5t-110 -43.5q-68 0 -112.5 43.5t-44.5 110.5zM133 0v279h193v876h-193v279h694v-279h-196v-876h196v-279h-694zM557 1739q0 64 45.5 109.5t110.5 45.5q71 0 113 -44.5t42 -110.5 q0 -68 -43 -111t-112 -43q-67 0 -111.5 43.5t-44.5 110.5z" />
<glyph unicode="&#xd0;" horiz-adv-x="1486" d="M113 0v262h123v320h-109v284h109v305h-123v263h563q171 0 309.5 -53t230 -148.5t140.5 -227t49 -288.5q0 -335 -191.5 -526t-537.5 -191h-563zM537 274h139q195 0 304.5 118t109.5 325q0 200 -109.5 320t-304.5 120h-139v-291h276v-284h-276v-308z" />
<glyph unicode="&#xd1;" horiz-adv-x="1462" d="M143 0v1434h521l331 -1127h21v1127h303v-1434h-524l-324 1126h-22v-1126h-306zM385 1612q0 152 67 223.5t169 71.5q58 0 110.5 -19t90.5 -38t61 -19q28 0 44.5 21t16.5 53h201q0 -151 -66 -223t-168 -72q-53 0 -102.5 19t-90 38t-71.5 19q-29 0 -45 -20.5t-16 -53.5h-201 z" />
<glyph unicode="&#xd2;" horiz-adv-x="1658" d="M82 719q0 207 97 377t268 267t382 97q159 0 298.5 -57.5t238 -156.5t155 -236t56.5 -291q0 -208 -96.5 -378.5t-268.5 -269t-383 -98.5q-159 0 -298.5 57.5t-237.5 156.5t-154.5 237t-56.5 295zM397 719q0 -195 122.5 -323t309.5 -128q185 0 309 128.5t124 322.5 q0 192 -124 319t-309 127q-187 0 -309.5 -127t-122.5 -319zM553 1903h324l84 -306h-199z" />
<glyph unicode="&#xd3;" horiz-adv-x="1658" d="M82 719q0 207 97 377t268 267t382 97q159 0 298.5 -57.5t238 -156.5t155 -236t56.5 -291q0 -208 -96.5 -378.5t-268.5 -269t-383 -98.5q-159 0 -298.5 57.5t-237.5 156.5t-154.5 237t-56.5 295zM397 719q0 -195 122.5 -323t309.5 -128q185 0 309 128.5t124 322.5 q0 192 -124 319t-309 127q-187 0 -309.5 -127t-122.5 -319zM698 1597l84 306h324l-209 -306h-199z" />
<glyph unicode="&#xd4;" horiz-adv-x="1658" d="M82 719q0 207 97 377t268 267t382 97q159 0 298.5 -57.5t238 -156.5t155 -236t56.5 -291q0 -208 -96.5 -378.5t-268.5 -269t-383 -98.5q-159 0 -298.5 57.5t-237.5 156.5t-154.5 237t-56.5 295zM397 719q0 -195 122.5 -323t309.5 -128q185 0 309 128.5t124 322.5 q0 192 -124 319t-309 127q-187 0 -309.5 -127t-122.5 -319zM494 1597l194 306h303l193 -306h-226l-108 119h-23l-106 -119h-227z" />
<glyph unicode="&#xd5;" horiz-adv-x="1658" d="M82 719q0 207 97 377t268 267t382 97q159 0 298.5 -57.5t238 -156.5t155 -236t56.5 -291q0 -208 -96.5 -378.5t-268.5 -269t-383 -98.5q-159 0 -298.5 57.5t-237.5 156.5t-154.5 237t-56.5 295zM397 719q0 -195 122.5 -323t309.5 -128q185 0 309 128.5t124 322.5 q0 192 -124 319t-309 127q-187 0 -309.5 -127t-122.5 -319zM461 1612q0 152 66.5 223.5t168.5 71.5q58 0 110.5 -19t90.5 -38t61 -19q28 0 45 21t17 53h201q0 -151 -66 -223t-168 -72q-53 0 -102.5 19t-90 38t-71.5 19q-29 0 -45 -20.5t-16 -53.5h-201z" />
<glyph unicode="&#xd6;" horiz-adv-x="1658" d="M82 719q0 207 97 377t268 267t382 97q159 0 298.5 -57.5t238 -156.5t155 -236t56.5 -291q0 -208 -96.5 -378.5t-268.5 -269t-383 -98.5q-159 0 -298.5 57.5t-237.5 156.5t-154.5 237t-56.5 295zM397 719q0 -195 122.5 -323t309.5 -128q185 0 309 128.5t124 322.5 q0 192 -124 319t-309 127q-187 0 -309.5 -127t-122.5 -319zM465 1739q0 64 45.5 109.5t112.5 45.5q65 0 109 -45.5t44 -109.5q0 -67 -43.5 -110.5t-109.5 -43.5q-68 0 -113 43.5t-45 110.5zM903 1739q0 64 45.5 109.5t110.5 45.5q71 0 113 -44.5t42 -110.5q0 -68 -43 -111 t-112 -43q-67 0 -111.5 43.5t-44.5 110.5z" />
<glyph unicode="&#xd7;" horiz-adv-x="1015" d="M10 305l314 328l-310 328l189 188l305 -324l309 324l187 -188l-312 -328l314 -330l-191 -182l-307 323l-305 -321z" />
<glyph unicode="&#xd8;" horiz-adv-x="1658" d="M82 719q0 207 97 377t268 267t382 97q192 0 357 -84l102 129l209 -155l-104 -133q184 -206 184 -498q0 -208 -96.5 -378.5t-268.5 -269t-383 -98.5q-189 0 -352 80l-106 -135l-209 156l108 137q-90 99 -139 229.5t-49 278.5zM397 719q0 -144 70 -256l528 672 q-76 30 -166 30q-187 0 -309.5 -127t-122.5 -319zM670 297q79 -29 159 -29q185 0 309 128.5t124 322.5q0 135 -68 246z" />
<glyph unicode="&#xd9;" horiz-adv-x="1376" d="M123 535v899h305v-897q0 -126 66.5 -197.5t193.5 -71.5q126 0 193 72t67 199v895h305v-897q0 -255 -150 -409.5t-415 -154.5q-269 0 -417 152.5t-148 409.5zM412 1903h323l84 -306h-198z" />
<glyph unicode="&#xda;" horiz-adv-x="1376" d="M123 535v899h305v-897q0 -126 66.5 -197.5t193.5 -71.5q126 0 193 72t67 199v895h305v-897q0 -255 -150 -409.5t-415 -154.5q-269 0 -417 152.5t-148 409.5zM557 1597l84 306h324l-209 -306h-199z" />
<glyph unicode="&#xdb;" horiz-adv-x="1376" d="M123 535v899h305v-897q0 -126 66.5 -197.5t193.5 -71.5q126 0 193 72t67 199v895h305v-897q0 -255 -150 -409.5t-415 -154.5q-269 0 -417 152.5t-148 409.5zM352 1597l195 306h303l192 -306h-225l-108 119h-23l-106 -119h-228z" />
<glyph unicode="&#xdc;" horiz-adv-x="1376" d="M123 535v899h305v-897q0 -126 66.5 -197.5t193.5 -71.5q126 0 193 72t67 199v895h305v-897q0 -255 -150 -409.5t-415 -154.5q-269 0 -417 152.5t-148 409.5zM324 1739q0 64 45 109.5t112 45.5q65 0 109.5 -45.5t44.5 -109.5q0 -67 -44 -110.5t-110 -43.5 q-68 0 -112.5 43.5t-44.5 110.5zM762 1739q0 64 45.5 109.5t110.5 45.5q71 0 113 -44.5t42 -110.5q0 -68 -43 -111t-112 -43q-67 0 -111.5 43.5t-44.5 110.5z" />
<glyph unicode="&#xdd;" horiz-adv-x="1355" d="M20 1434h351l291 -514h22l293 514h358l-506 -832v-602h-303v602zM559 1597l84 306h324l-209 -306h-199z" />
<glyph unicode="&#xde;" horiz-adv-x="1200" d="M143 0v1434h306v-240h204q216 0 351 -127t135 -336q0 -203 -139 -334t-347 -131h-204v-266h-306zM449 549h192q82 0 132 52t50 130t-50 128t-132 50h-192v-360z" />
<glyph unicode="&#xdf;" horiz-adv-x="1316" d="M123 0v1202q0 171 94 252.5t264 81.5h670v-395l-317 -234v-12q77 0 149 -27.5t131.5 -79.5t95 -137t35.5 -190q0 -215 -131.5 -338t-345.5 -123h-219v266h182q102 0 155.5 52.5t53.5 142.5q0 78 -54.5 127t-154.5 49h-182v350l317 262v13h-377q-38 0 -53.5 -16t-15.5 -52 v-1194h-297z" />
<glyph unicode="&#xe0;" horiz-adv-x="1361" d="M72 541q0 160 66 290t179 202.5t250 72.5q191 0 299 -127h23v100h299v-784q0 -21 13.5 -33t35.5 -12h43v-250h-270q-51 0 -85 34t-34 81h-23q-99 -142 -299 -142q-136 0 -250 74t-180.5 204.5t-66.5 289.5zM369 1534h323l84 -305h-198zM375 539q0 -125 75 -202t185 -77 q114 0 186 81t72 198q0 129 -75 203.5t-185 74.5t-184 -76.5t-74 -201.5z" />
<glyph unicode="&#xe1;" horiz-adv-x="1361" d="M72 541q0 160 66 290t179 202.5t250 72.5q191 0 299 -127h23v100h299v-784q0 -21 13.5 -33t35.5 -12h43v-250h-270q-51 0 -85 34t-34 81h-23q-99 -142 -299 -142q-136 0 -250 74t-180.5 204.5t-66.5 289.5zM375 539q0 -125 75 -202t185 -77q114 0 186 81t72 198 q0 129 -75 203.5t-185 74.5t-184 -76.5t-74 -201.5zM514 1229l84 305h324l-209 -305h-199z" />
<glyph unicode="&#xe2;" horiz-adv-x="1361" d="M72 541q0 160 66 290t179 202.5t250 72.5q191 0 299 -127h23v100h299v-784q0 -21 13.5 -33t35.5 -12h43v-250h-270q-51 0 -85 34t-34 81h-23q-99 -142 -299 -142q-136 0 -250 74t-180.5 204.5t-66.5 289.5zM309 1229l195 305h303l192 -305h-225l-108 119h-23l-106 -119 h-228zM375 539q0 -125 75 -202t185 -77q114 0 186 81t72 198q0 129 -75 203.5t-185 74.5t-184 -76.5t-74 -201.5z" />
<glyph unicode="&#xe3;" horiz-adv-x="1361" d="M72 541q0 160 66 290t179 202.5t250 72.5q191 0 299 -127h23v100h299v-784q0 -21 13.5 -33t35.5 -12h43v-250h-270q-51 0 -85 34t-34 81h-23q-99 -142 -299 -142q-136 0 -250 74t-180.5 204.5t-66.5 289.5zM276 1243q0 152 67 223.5t169 71.5q58 0 110.5 -19t90.5 -38 t61 -19q28 0 45 21t17 53h200q0 -151 -66 -223t-167 -72q-53 0 -102.5 19t-90 38t-71.5 19q-29 0 -45.5 -20.5t-16.5 -53.5h-201zM375 539q0 -125 75 -202t185 -77q114 0 186 81t72 198q0 129 -75 203.5t-185 74.5t-184 -76.5t-74 -201.5z" />
<glyph unicode="&#xe4;" horiz-adv-x="1361" d="M72 541q0 160 66 290t179 202.5t250 72.5q191 0 299 -127h23v100h299v-784q0 -21 13.5 -33t35.5 -12h43v-250h-270q-51 0 -85 34t-34 81h-23q-99 -142 -299 -142q-136 0 -250 74t-180.5 204.5t-66.5 289.5zM281 1370q0 64 45 110t112 46q65 0 109.5 -46t44.5 -110 q0 -67 -44 -110t-110 -43q-68 0 -112.5 43t-44.5 110zM375 539q0 -125 75 -202t185 -77q114 0 186 81t72 198q0 129 -75 203.5t-185 74.5t-184 -76.5t-74 -201.5zM719 1370q0 64 45 110t110 46q71 0 113.5 -45t42.5 -111q0 -68 -43.5 -110.5t-112.5 -42.5q-67 0 -111 43 t-44 110z" />
<glyph unicode="&#xe5;" horiz-adv-x="1361" d="M72 541q0 160 66 290t179 202.5t250 72.5q191 0 299 -127h23v100h299v-784q0 -21 13.5 -33t35.5 -12h43v-250h-270q-51 0 -85 34t-34 81h-23q-99 -142 -299 -142q-136 0 -250 74t-180.5 204.5t-66.5 289.5zM375 539q0 -125 75 -202t185 -77q114 0 186 81t72 198 q0 129 -75 203.5t-185 74.5t-184 -76.5t-74 -201.5zM418 1401q0 94 63.5 154.5t161.5 60.5q103 0 166 -60t63 -153q0 -95 -63.5 -156t-163.5 -61t-163.5 60.5t-63.5 154.5zM569 1401q0 -33 21.5 -54.5t54.5 -21.5q32 0 53 22t21 56q0 30 -21.5 52t-54.5 22q-32 0 -53 -22.5 t-21 -53.5z" />
<glyph unicode="&#xe6;" horiz-adv-x="2011" d="M72 330q0 149 102.5 243.5t300.5 94.5h359q-12 90 -75 142t-173 52q-90 0 -144.5 -38.5t-76.5 -100.5l-250 68q43 156 163 236.5t308 80.5q133 0 233 -46t160 -124h20q134 170 392 170q165 0 291 -76t191.5 -204t65.5 -287v-76h-768q2 -94 66 -156.5t162 -62.5 q71 0 128.5 30.5t88.5 94.5l285 -68q-23 -72 -63 -129t-88 -94.5t-107 -61.5t-118 -34.5t-122 -10.5q-133 0 -245.5 50.5t-188.5 140.5h-21q-71 -89 -167.5 -140t-254.5 -51q-203 0 -328.5 103t-125.5 254zM371 352q0 -56 48 -92.5t150 -36.5q117 0 188.5 65t71.5 177h-309 q-63 0 -106 -29t-43 -84zM1171 668h443q-11 70 -72 122t-147 52q-92 0 -151 -54t-73 -120z" />
<glyph unicode="&#xe7;" horiz-adv-x="1247" d="M72 539q0 158 68.5 286.5t197.5 204.5t295 76q201 0 346.5 -106t196.5 -304l-277 -69q-25 92 -93.5 143t-164.5 51q-121 0 -193.5 -79.5t-72.5 -202.5q0 -121 73.5 -201t192.5 -80q96 0 163.5 49.5t92.5 138.5l279 -67q-43 -170 -159.5 -271.5t-281.5 -125.5l-35 -414 h-256l86 414q-208 33 -333 189t-125 368z" />
<glyph unicode="&#xe8;" horiz-adv-x="1232" d="M72 539q0 165 75 295.5t200.5 201t275.5 70.5q162 0 285.5 -75t188 -202.5t64.5 -287.5v-76h-782q1 -104 70.5 -165.5t177.5 -61.5q78 0 141 32.5t92 96.5l266 -62q-28 -88 -80 -153.5t-119 -103.5t-141 -56.5t-155 -18.5q-246 0 -402.5 160t-156.5 406zM340 1534h324 l84 -305h-199zM381 664h479q-11 83 -77 138.5t-160 55.5q-99 0 -165 -58t-77 -136z" />
<glyph unicode="&#xe9;" horiz-adv-x="1232" d="M72 539q0 165 75 295.5t200.5 201t275.5 70.5q162 0 285.5 -75t188 -202.5t64.5 -287.5v-76h-782q1 -104 70.5 -165.5t177.5 -61.5q78 0 141 32.5t92 96.5l266 -62q-28 -88 -80 -153.5t-119 -103.5t-141 -56.5t-155 -18.5q-246 0 -402.5 160t-156.5 406zM381 664h479 q-11 83 -77 138.5t-160 55.5q-99 0 -165 -58t-77 -136zM485 1229l84 305h324l-209 -305h-199z" />
<glyph unicode="&#xea;" horiz-adv-x="1232" d="M72 539q0 165 75 295.5t200.5 201t275.5 70.5q162 0 285.5 -75t188 -202.5t64.5 -287.5v-76h-782q1 -104 70.5 -165.5t177.5 -61.5q78 0 141 32.5t92 96.5l266 -62q-28 -88 -80 -153.5t-119 -103.5t-141 -56.5t-155 -18.5q-246 0 -402.5 160t-156.5 406zM281 1229 l194 305h303l193 -305h-226l-108 119h-23l-106 -119h-227zM381 664h479q-11 83 -77 138.5t-160 55.5q-99 0 -165 -58t-77 -136z" />
<glyph unicode="&#xeb;" horiz-adv-x="1232" d="M72 539q0 165 75 295.5t200.5 201t275.5 70.5q162 0 285.5 -75t188 -202.5t64.5 -287.5v-76h-782q1 -104 70.5 -165.5t177.5 -61.5q78 0 141 32.5t92 96.5l266 -62q-28 -88 -80 -153.5t-119 -103.5t-141 -56.5t-155 -18.5q-246 0 -402.5 160t-156.5 406zM252 1370 q0 64 45.5 110t112.5 46q65 0 109 -46t44 -110q0 -67 -43.5 -110t-109.5 -43q-68 0 -113 43t-45 110zM381 664h479q-11 83 -77 138.5t-160 55.5q-99 0 -165 -58t-77 -136zM690 1370q0 64 45.5 110t110.5 46q71 0 113 -45t42 -111q0 -68 -43 -110.5t-112 -42.5 q-67 0 -111.5 43t-44.5 110z" />
<glyph unicode="&#xec;" horiz-adv-x="669" d="M82 815v264h475v-1079h-297v815h-178zM84 1548h324l84 -305h-199z" />
<glyph unicode="&#xed;" horiz-adv-x="669" d="M82 815v264h475v-1079h-297v815h-178zM229 1243l84 305h324l-209 -305h-199z" />
<glyph unicode="&#xee;" horiz-adv-x="669" d="M25 1243l194 305h303l193 -305h-226l-108 119h-23l-106 -119h-227zM82 815v264h475v-1079h-297v815h-178z" />
<glyph unicode="&#xef;" horiz-adv-x="669" d="M-4 1384q0 64 45.5 110t112.5 46q65 0 109 -46t44 -110q0 -67 -43.5 -110t-109.5 -43q-68 0 -113 43t-45 110zM82 815v264h475v-1079h-297v815h-178zM434 1384q0 64 45.5 110t110.5 46q71 0 113 -45t42 -111q0 -68 -43 -110.5t-112 -42.5q-67 0 -111.5 43t-44.5 110z" />
<glyph unicode="&#xf0;" horiz-adv-x="1269" d="M72 510q0 154 72 276t189.5 187t254.5 65q97 0 180 -30h12q-61 91 -162 178l-321 -121v166l170 65q-104 67 -234 121l152 139q171 -53 336 -165l287 108v-168l-148 -55q156 -146 247 -340.5t91 -425.5q0 -156 -74.5 -279.5t-202.5 -190.5t-286 -67q-247 0 -405 149.5 t-158 387.5zM375 510q0 -112 70.5 -182t189.5 -70t189.5 70t70.5 182q0 116 -71 190t-189 74t-189 -74t-71 -190z" />
<glyph unicode="&#xf1;" horiz-adv-x="1185" d="M123 0v1079h299v-98h20q39 56 106.5 90.5t156.5 34.5q167 0 272.5 -110t105.5 -271v-725h-299v629q0 82 -50 135t-128 53q-81 0 -132.5 -54t-51.5 -136v-627h-299zM244 1243q0 152 66.5 223.5t168.5 71.5q58 0 110.5 -19t90.5 -38t61 -19q28 0 45 21t17 53h201 q0 -151 -66 -223t-168 -72q-53 0 -102.5 19t-90 38t-71.5 19q-29 0 -45.5 -20.5t-16.5 -53.5h-200z" />
<glyph unicode="&#xf2;" horiz-adv-x="1292" d="M72 539q0 243 162.5 405t412.5 162q166 0 297.5 -75t204 -204.5t72.5 -287.5q0 -118 -43 -222.5t-118 -180t-182 -119.5t-231 -44t-232 44t-183 119.5t-117.5 180t-42.5 222.5zM371 1534h323l84 -305h-198zM375 539q0 -121 76.5 -201t195.5 -80t195 80t76 201 q0 122 -76 202t-195 80t-195.5 -80t-76.5 -202z" />
<glyph unicode="&#xf3;" horiz-adv-x="1292" d="M72 539q0 243 162.5 405t412.5 162q166 0 297.5 -75t204 -204.5t72.5 -287.5q0 -118 -43 -222.5t-118 -180t-182 -119.5t-231 -44t-232 44t-183 119.5t-117.5 180t-42.5 222.5zM375 539q0 -121 76.5 -201t195.5 -80t195 80t76 201q0 122 -76 202t-195 80t-195.5 -80 t-76.5 -202zM516 1229l84 305h324l-209 -305h-199z" />
<glyph unicode="&#xf4;" horiz-adv-x="1292" d="M72 539q0 243 162.5 405t412.5 162q166 0 297.5 -75t204 -204.5t72.5 -287.5q0 -118 -43 -222.5t-118 -180t-182 -119.5t-231 -44t-232 44t-183 119.5t-117.5 180t-42.5 222.5zM311 1229l195 305h303l192 -305h-225l-108 119h-23l-106 -119h-228zM375 539 q0 -121 76.5 -201t195.5 -80t195 80t76 201q0 122 -76 202t-195 80t-195.5 -80t-76.5 -202z" />
<glyph unicode="&#xf5;" horiz-adv-x="1292" d="M72 539q0 243 162.5 405t412.5 162q166 0 297.5 -75t204 -204.5t72.5 -287.5q0 -118 -43 -222.5t-118 -180t-182 -119.5t-231 -44t-232 44t-183 119.5t-117.5 180t-42.5 222.5zM279 1243q0 152 66.5 223.5t168.5 71.5q58 0 110.5 -19t90.5 -38t61 -19q28 0 45 21t17 53 h200q0 -151 -66 -223t-167 -72q-53 0 -102.5 19t-90 38t-71.5 19q-29 0 -45.5 -20.5t-16.5 -53.5h-200zM375 539q0 -121 76.5 -201t195.5 -80t195 80t76 201q0 122 -76 202t-195 80t-195.5 -80t-76.5 -202z" />
<glyph unicode="&#xf6;" horiz-adv-x="1292" d="M72 539q0 243 162.5 405t412.5 162q166 0 297.5 -75t204 -204.5t72.5 -287.5q0 -118 -43 -222.5t-118 -180t-182 -119.5t-231 -44t-232 44t-183 119.5t-117.5 180t-42.5 222.5zM283 1370q0 64 45 110t112 46q65 0 109.5 -46t44.5 -110q0 -67 -44 -110t-110 -43 q-68 0 -112.5 43t-44.5 110zM375 539q0 -121 76.5 -201t195.5 -80t195 80t76 201q0 122 -76 202t-195 80t-195.5 -80t-76.5 -202zM721 1370q0 64 45.5 110t110.5 46q71 0 113 -45t42 -111q0 -68 -43 -110.5t-112 -42.5q-67 0 -111.5 43t-44.5 110z" />
<glyph unicode="&#xf7;" horiz-adv-x="1017" d="M10 506v264h998v-264h-998zM360 281q0 56 38.5 95.5t95.5 39.5q59 0 97 -39t38 -96q0 -58 -38 -96t-97 -38q-57 0 -95.5 38.5t-38.5 95.5zM360 995q0 56 38.5 95.5t95.5 39.5q59 0 97 -39t38 -96q0 -59 -37.5 -96t-97.5 -37q-57 0 -95.5 37.5t-38.5 95.5z" />
<glyph unicode="&#xf8;" horiz-adv-x="1292" d="M72 539q0 243 162.5 405t412.5 162q144 0 256 -53l84 106l164 -129l-78 -100q148 -157 148 -391q0 -118 -43 -222.5t-118 -180t-182 -119.5t-231 -44q-147 0 -270 60l-72 -92l-164 127l70 90q-139 158 -139 381zM375 539q0 -69 28 -133l316 407q-31 8 -72 8 q-119 0 -195.5 -80t-76.5 -202zM561 270q40 -12 86 -12q119 0 195 80t76 201q0 83 -35 145z" />
<glyph unicode="&#xf9;" horiz-adv-x="1165" d="M102 354v725h299v-628q0 -82 50.5 -135.5t128.5 -53.5q81 0 132.5 54.5t51.5 136.5v626h299v-1079h-299v98h-21q-39 -56 -106 -90.5t-156 -34.5q-167 0 -273 110t-106 271zM311 1548h324l84 -305h-199z" />
<glyph unicode="&#xfa;" horiz-adv-x="1165" d="M102 354v725h299v-628q0 -82 50.5 -135.5t128.5 -53.5q81 0 132.5 54.5t51.5 136.5v626h299v-1079h-299v98h-21q-39 -56 -106 -90.5t-156 -34.5q-167 0 -273 110t-106 271zM457 1243l84 305h323l-209 -305h-198z" />
<glyph unicode="&#xfb;" horiz-adv-x="1165" d="M102 354v725h299v-628q0 -82 50.5 -135.5t128.5 -53.5q81 0 132.5 54.5t51.5 136.5v626h299v-1079h-299v98h-21q-39 -56 -106 -90.5t-156 -34.5q-167 0 -273 110t-106 271zM252 1243l194 305h304l192 -305h-225l-109 119h-22l-107 -119h-227z" />
<glyph unicode="&#xfc;" horiz-adv-x="1165" d="M102 354v725h299v-628q0 -82 50.5 -135.5t128.5 -53.5q81 0 132.5 54.5t51.5 136.5v626h299v-1079h-299v98h-21q-39 -56 -106 -90.5t-156 -34.5q-167 0 -273 110t-106 271zM223 1384q0 64 45.5 110t112.5 46q65 0 109.5 -46t44.5 -110q0 -67 -44 -110t-110 -43 q-68 0 -113 43t-45 110zM662 1384q0 64 45 110t110 46q71 0 113.5 -45t42.5 -111q0 -68 -43.5 -110.5t-112.5 -42.5q-67 0 -111 43t-44 110z" />
<glyph unicode="&#xfd;" horiz-adv-x="1153" d="M20 1079h324l219 -792h23l219 792h328l-474 -1331q-41 -115 -127.5 -167t-232.5 -52h-178v272h158q44 0 69.5 17t42.5 59l47 123h-57zM438 1243l84 305h324l-209 -305h-199z" />
<glyph unicode="&#xfe;" horiz-adv-x="1310" d="M123 -457v1993h299v-557h22q99 127 291 127q138 0 253.5 -73.5t183 -204t67.5 -289.5q0 -156 -63 -285.5t-175 -205t-249 -75.5q-114 0 -191.5 40t-116.5 98h-22v-568h-299zM418 541q0 -131 75 -208t185 -77t184 79.5t74 205.5q0 124 -75 202t-185 78q-114 0 -186 -81.5 t-72 -198.5z" />
<glyph unicode="&#xff;" horiz-adv-x="1153" d="M20 1079h324l219 -792h23l219 792h328l-474 -1331q-41 -115 -127.5 -167t-232.5 -52h-178v272h158q44 0 69.5 17t42.5 59l47 123h-57zM205 1384q0 64 45 110t112 46q65 0 109.5 -46t44.5 -110q0 -67 -44 -110t-110 -43q-68 0 -112.5 43t-44.5 110zM643 1384 q0 64 45.5 110t110.5 46q71 0 113 -45t42 -111q0 -68 -43 -110.5t-112 -42.5q-67 0 -111.5 43t-44.5 110z" />
<glyph unicode="&#x152;" horiz-adv-x="2240" d="M82 719q0 207 97 377t268 267t382 97q105 0 207 -26h1102v-287h-690q86 -128 115 -277h493v-284h-489q-26 -161 -123 -301h715v-285h-1123q-111 -27 -207 -27q-159 0 -298.5 57.5t-237.5 156.5t-154.5 237t-56.5 295zM397 719q0 -195 122.5 -323t309.5 -128 q185 0 309 128.5t124 322.5q0 192 -124 319t-309 127q-187 0 -309.5 -127t-122.5 -319z" />
<glyph unicode="&#x153;" horiz-adv-x="2086" d="M72 539q0 243 162.5 405t412.5 162q129 0 237.5 -45.5t186.5 -128.5q75 83 180.5 128.5t225.5 45.5q162 0 285.5 -75t188 -202.5t64.5 -287.5v-76h-782q1 -104 70.5 -165.5t177.5 -61.5q78 0 141 32.5t92 96.5l266 -62q-28 -88 -80 -153.5t-119 -103.5t-141 -56.5 t-155 -18.5q-126 0 -232.5 45t-183.5 127q-77 -81 -185.5 -126.5t-236.5 -45.5q-124 0 -232 44t-183 119.5t-117.5 180t-42.5 222.5zM375 539q0 -121 76.5 -201t195.5 -80t195 80t76 201q0 122 -76 202t-195 80t-195.5 -80t-76.5 -202zM1235 664h479q-11 83 -77 138.5 t-160 55.5q-99 0 -165 -58t-77 -136z" />
<glyph unicode="&#x178;" horiz-adv-x="1355" d="M20 1434h351l291 -514h22l293 514h358l-506 -832v-602h-303v602zM326 1739q0 64 45 109.5t112 45.5q65 0 109.5 -45.5t44.5 -109.5q0 -67 -44 -110.5t-110 -43.5q-68 0 -112.5 43.5t-44.5 110.5zM764 1739q0 64 45.5 109.5t110.5 45.5q71 0 113 -44.5t42 -110.5 q0 -68 -43 -111t-112 -43q-67 0 -111.5 43.5t-44.5 110.5z" />
<glyph unicode="&#x2c6;" horiz-adv-x="894" d="M102 1229l195 305h303l193 -305h-226l-108 119h-23l-106 -119h-228z" />
<glyph unicode="&#x2dc;" horiz-adv-x="964" d="M102 1243q0 152 67 223.5t169 71.5q58 0 110.5 -19t90.5 -38t61 -19q28 0 45 21t17 53h200q0 -151 -66 -223t-167 -72q-53 0 -102.5 19t-90 38t-71.5 19q-29 0 -45.5 -20.5t-16.5 -53.5h-201z" />
<glyph unicode="&#x2000;" horiz-adv-x="992" />
<glyph unicode="&#x2001;" horiz-adv-x="1985" />
<glyph unicode="&#x2002;" horiz-adv-x="992" />
<glyph unicode="&#x2003;" horiz-adv-x="1985" />
<glyph unicode="&#x2004;" horiz-adv-x="661" />
<glyph unicode="&#x2005;" horiz-adv-x="496" />
<glyph unicode="&#x2006;" horiz-adv-x="330" />
<glyph unicode="&#x2007;" horiz-adv-x="330" />
<glyph unicode="&#x2008;" horiz-adv-x="248" />
<glyph unicode="&#x2009;" horiz-adv-x="397" />
<glyph unicode="&#x200a;" horiz-adv-x="110" />
<glyph unicode="&#x2010;" horiz-adv-x="831" d="M113 465v278h606v-278h-606z" />
<glyph unicode="&#x2011;" horiz-adv-x="831" d="M113 465v278h606v-278h-606z" />
<glyph unicode="&#x2012;" horiz-adv-x="831" d="M113 465v278h606v-278h-606z" />
<glyph unicode="&#x2013;" horiz-adv-x="1247" d="M82 471v266h1083v-266h-1083z" />
<glyph unicode="&#x2014;" horiz-adv-x="1728" d="M82 471v266h1565v-266h-1565z" />
<glyph unicode="&#x2018;" horiz-adv-x="538" d="M92 926l129 508h225l-43 -508h-311z" />
<glyph unicode="&#x2019;" horiz-adv-x="538" d="M92 926l43 508h311l-129 -508h-225z" />
<glyph unicode="&#x201a;" horiz-adv-x="557" d="M92 -199l41 510h311l-127 -510h-225z" />
<glyph unicode="&#x201c;" horiz-adv-x="944" d="M92 926l127 508h225l-41 -508h-311zM500 926l127 508h225l-41 -508h-311z" />
<glyph unicode="&#x201d;" horiz-adv-x="944" d="M92 926l41 508h311l-127 -508h-225zM500 926l41 508h311l-127 -508h-225z" />
<glyph unicode="&#x201e;" horiz-adv-x="964" d="M92 -199l41 510h311l-127 -510h-225zM500 -199l41 510h311l-127 -510h-225z" />
<glyph unicode="&#x2022;" horiz-adv-x="950" d="M123 635q0 148 100.5 250t251.5 102t251.5 -102t100.5 -250t-100.5 -250t-251.5 -102t-251.5 102t-100.5 250z" />
<glyph unicode="&#x202f;" horiz-adv-x="397" />
<glyph unicode="&#x2039;" horiz-adv-x="731" d="M102 489v197l222 301h305l-287 -389v-23l287 -382h-305z" />
<glyph unicode="&#x203a;" horiz-adv-x="731" d="M102 193l287 382v23l-287 389h306l221 -301v-197l-221 -296h-306z" />
<glyph unicode="&#x205f;" horiz-adv-x="496" />
<glyph unicode="&#x20ac;" horiz-adv-x="1234" d="M41 475v207h82v61h-82v207h82v37q0 140 69 249.5t178.5 166.5t235.5 57q127 0 237 -57t179.5 -166.5t69.5 -249.5v-8h-301q0 81 -51.5 135.5t-133.5 54.5q-80 0 -131 -54.5t-51 -135.5v-29h268v-207h-268v-61h268v-207h-268v-20q0 -83 50 -137t132 -54q83 0 134 54 t51 137h301v-9q0 -140 -69.5 -249.5t-179.5 -166.5t-237 -57q-126 0 -235.5 57t-178.5 166.5t-69 249.5v29h-82z" />
<glyph unicode="&#x2122;" horiz-adv-x="1660" d="M102 1274v160h521v-160h-174v-578h-170v578h-177zM750 696v738h292l95 -578h34l95 578h293v-738h-156v578h-23l-96 -578h-260l-94 578h-23v-578h-157z" />
<glyph unicode="&#x25fc;" horiz-adv-x="1075" d="M0 0v1075h1075v-1075h-1075z" />
<glyph d="M154 446v541q0 140 69 249.5t178.5 166.5t235.5 57q127 0 237 -57t179 -166.5t69 -249.5v-541q0 -140 -69 -249.5t-179 -166.5t-237 -57q-126 0 -235.5 57t-178.5 166.5t-69 249.5zM455 455q0 -83 50 -137t132 -54q83 0 133.5 54t50.5 137v524q0 81 -51 135.5t-133 54.5 q-80 0 -131 -54.5t-51 -135.5v-524z" />
<glyph d="M203 963v301l313 170h320v-1158h239v-276h-819v276h279v850h-23z" />
<glyph d="M168 981q0 91 30.5 175.5t87 153t146 109.5t199.5 41q107 0 196.5 -35t148.5 -93.5t91.5 -135t32.5 -160.5q0 -133 -55 -228.5t-166 -184.5l-398 -318v-22h627v-283h-934v401l502 422q117 95 117 199q0 59 -45.5 103t-120.5 44q-74 0 -122 -53t-48 -135h-289z" />
<glyph d="M158 449h282q3 -88 57 -137.5t134 -49.5q86 0 139 51.5t53 128.5q0 81 -53 132t-154 51h-208v331l356 193v22h-578v263h883v-375l-356 -191v-22q166 0 286.5 -121.5t120.5 -280.5q0 -96 -35 -181.5t-98 -149t-157 -101t-205 -37.5q-112 0 -203.5 42.5t-147.5 111.5 t-86 151.5t-30 168.5z" />
<glyph d="M96 311v283l482 840h440v-848h166v-275h-166v-311h-301v311h-621zM403 586h314v540h-25l-289 -518v-22z" />
<glyph d="M145 444h287q3 -88 60 -136t137 -48q84 0 139 54.5t55 138.5t-55.5 142t-146.5 58q-33 0 -62 -9.5t-47.5 -22.5t-32.5 -26t-20 -23l-6 -9h-279l47 871h823v-277h-555l-18 -301h25q71 59 188 59q129 0 232 -63t158.5 -168.5t55.5 -232.5q0 -208 -142.5 -343t-352.5 -135 q-202 0 -341.5 121t-148.5 350z" />
<glyph d="M139 457q0 140 88 297l391 680h338l-327 -527l18 -14q32 16 78 16q110 0 205.5 -59.5t152 -164t56.5 -228.5q0 -132 -70 -244t-186.5 -176t-249.5 -64q-205 0 -349.5 140t-144.5 344zM446 457q0 -85 54.5 -141t136.5 -56q83 0 138.5 56.5t55.5 140.5q0 83 -55.5 139.5 t-138.5 56.5q-82 0 -136.5 -56.5t-54.5 -139.5z" />
<glyph d="M168 1026v408h942v-334l-471 -1100h-334l498 1135v22h-371v-131h-264z" />
<glyph d="M150 422q0 120 62.5 216t149.5 132v23q-66 39 -107.5 115.5t-41.5 164.5q0 117 58.5 206.5t154.5 135t213 45.5t213 -45.5t154.5 -135t58.5 -206.5q0 -88 -42 -164.5t-108 -115.5v-23q87 -36 150 -132t63 -216q0 -198 -136.5 -321.5t-352.5 -123.5t-352.5 123.5 t-136.5 321.5zM453 444q0 -74 46.5 -127t139.5 -53t139.5 53t46.5 127q0 73 -50.5 123.5t-135.5 50.5t-135.5 -50.5t-50.5 -123.5zM498 1055q0 -58 40.5 -101t100.5 -43q64 0 102.5 42t38.5 102q0 59 -39 99t-102 40t-102 -40t-39 -99z" />
<glyph d="M139 977q0 132 70 244t186 175.5t250 63.5q205 0 349.5 -139.5t144.5 -343.5q0 -140 -88 -297l-392 -680h-337l327 526l-18 15q-34 -17 -78 -17q-169 0 -291.5 132t-122.5 321zM446 977q0 -83 56 -140t139 -57q81 0 135.5 56.5t54.5 140.5q0 85 -54 141t-136 56 q-83 0 -139 -57t-56 -140z" />
</font>
</defs>
</svg>
