<?xml version="1.0" encoding="UTF-8" standalone="no"?><!DOCTYPE svg PUBLIC "-//W3C//DTD SVG 1.1//EN" "http://www.w3.org/Graphics/SVG/1.1/DTD/svg11.dtd"><svg width="100%" height="100%" viewBox="0 0 512 512" version="1.1" xmlns="http://www.w3.org/2000/svg" xmlns:xlink="http://www.w3.org/1999/xlink" xml:space="preserve" style="fill-rule:evenodd;clip-rule:evenodd;stroke-linejoin:round;stroke-miterlimit:1.41421;"><path d="M118.126,210.499l0,-124.997c0.021,-0.53 0.021,-1.061 0.064,-1.589c0.128,-1.586 0.448,-3.156 0.952,-4.665c0.84,-2.516 2.191,-4.856 3.95,-6.842c2.113,-2.384 4.801,-4.24 7.779,-5.37c1.488,-0.564 3.044,-0.947 4.623,-1.139c1.405,-0.171 1.764,-0.128 3.176,-0.128c0.528,0.043 1.057,0.085 1.585,0.128c0.523,0.085 1.05,0.149 1.57,0.255c1.04,0.212 2.06,0.508 3.053,0.884c1.323,0.502 1.621,0.707 2.871,1.363l108.252,62.498l108.251,-62.498l1.408,-0.739c1.299,-0.554 1.612,-0.733 2.972,-1.127c1.528,-0.443 3.109,-0.7 4.699,-0.764c2.12,-0.085 4.252,0.173 6.29,0.764c3.06,0.886 5.888,2.519 8.186,4.726c1.913,1.838 3.448,4.061 4.488,6.502c0.623,1.464 1.069,3.003 1.324,4.573c0.227,1.397 0.199,1.757 0.256,3.168l0,124.997l108.252,62.499c0.527,0.338 1.071,0.652 1.581,1.016c2.043,1.455 3.803,3.299 5.159,5.41c1.356,2.11 2.303,4.476 2.778,6.939c0.594,3.081 0.441,6.292 -0.443,9.302c-0.53,1.804 -1.319,3.531 -2.335,5.113c-1.356,2.11 -3.116,3.955 -5.159,5.41c-0.51,0.363 -1.054,0.677 -1.581,1.016c-38.853,22.432 -78.803,43.065 -116.603,67.225c-0.06,0.042 -0.119,0.084 -0.179,0.125c-0.418,0.288 -0.858,0.544 -1.288,0.815l-0.056,0.036l-46.471,26.829l-71.654,41.371c-0.47,0.246 -0.93,0.511 -1.409,0.739l-0.011,0.005c-0.076,0.039 -0.152,0.075 -0.23,0.107l-0.043,0.02c-0.094,0.047 -0.191,0.089 -0.289,0.129c-0.78,0.34 -1.581,0.629 -2.398,0.866c-0.782,0.226 -1.576,0.403 -2.378,0.53c-0.102,0.021 -0.204,0.038 -0.308,0.048l-0.025,0.002c-0.592,0.084 -1.189,0.141 -1.786,0.171l-0.059,0.005c-0.171,0.017 -0.342,0.018 -0.514,0.015c-1.006,0.022 -2.013,-0.033 -3.011,-0.164c-0.076,-0.006 -0.151,-0.015 -0.226,-0.029l-0.033,-0.007c-0.894,-0.129 -1.78,-0.319 -2.649,-0.571c-0.327,-0.095 -0.65,-0.198 -0.971,-0.309c-0.066,-0.019 -0.131,-0.043 -0.195,-0.069c-0.614,-0.219 -1.217,-0.47 -1.806,-0.749c-0.479,-0.228 -0.939,-0.493 -1.408,-0.739l-0.11,-0.064c-39.342,-22.709 -79.806,-43.58 -118.021,-68.139l-118.122,-68.198c-0.527,-0.339 -1.071,-0.653 -1.581,-1.016c-2.043,-1.455 -3.802,-3.3 -5.158,-5.41c-1.697,-2.639 -2.748,-5.677 -3.046,-8.8c-0.238,-2.497 0.004,-5.035 0.711,-7.441c0.529,-1.805 1.318,-3.531 2.335,-5.113c1.356,-2.111 3.115,-3.956 5.158,-5.41c0.51,-0.364 1.054,-0.678 1.581,-1.016l108.252,-62.499Zm39.498,11.395l0,0.007l0,124.998l78.628,45.396l0,-227.191l-78.628,-45.396l0,102.186Zm118.126,-56.79l0,227.19l74.246,-42.866l4.381,-2.529l0,-227.191l-78.627,45.396Zm-216.503,124.997l58.879,33.994l0,-67.987l-58.879,33.993Zm334.628,33.994l58.879,-33.994l-58.879,-33.993c0,22.662 0,45.324 0,67.987Z" style="fill:#fff;"/></svg>